<?xml version="1.0" encoding="utf-8"?>
<!-- Generator: Adobe Illustrator 22.0.1, SVG Export Plug-In . SVG Version: 6.00 Build 0)  -->
<svg version="1.1" id="Layer_1" xmlns="http://www.w3.org/2000/svg" xmlns:xlink="http://www.w3.org/1999/xlink" x="0px" y="0px"
	 viewBox="0 0 760 575" style="enable-background:new 0 0 760 575;" xml:space="preserve">
<style type="text/css">
	.st0{display:none;fill:#0F1D51;}
	.st1{fill:url(#SVGID_1_);}
	.st2{fill:none;stroke:#EB175E;stroke-width:2.5451;stroke-miterlimit:10;}
	.st3{fill:none;stroke:#75CEEA;stroke-width:2.5451;stroke-miterlimit:10;}
	.st4{fill:#EB175E;}
	.st5{fill:#75CEEA;}
	.st6{fill:url(#SVGID_2_);}
	.st7{fill:url(#SVGID_3_);}
	.st8{fill:#FFE3EE;}
	.st9{fill:url(#SVGID_4_);}
	.st10{fill:url(#SVGID_5_);}
	.st11{fill:url(#SVGID_6_);}
	.st12{fill:url(#SVGID_7_);}
	.st13{fill:#01FFFF;}
	.st14{fill:#FFC7DE;}
	.st15{fill:url(#SVGID_8_);}
	.st16{fill:url(#SVGID_9_);}
	.st17{fill:#16A0F4;}
	.st18{fill:#024B75;}
	.st19{fill:url(#SVGID_10_);}
	.st20{fill:url(#SVGID_11_);}
	.st21{fill:url(#SVGID_12_);}
	.st22{fill:url(#SVGID_13_);}
	.st23{fill:url(#SVGID_14_);}
	.st24{fill:url(#SVGID_15_);}
	.st25{fill:url(#SVGID_16_);}
	.st26{fill:url(#SVGID_17_);}
	.st27{fill:url(#SVGID_18_);}
	.st28{fill:url(#SVGID_19_);}
	.st29{fill:#D882A9;}
	.st30{fill:#FFA4C9;}
	.st31{fill:#2242B8;}
	.st32{fill:url(#SVGID_20_);}
	.st33{fill:none;stroke:url(#SVGID_21_);stroke-width:2.8726;stroke-miterlimit:10;}
	.st34{fill:none;stroke:url(#SVGID_22_);stroke-width:2.3481;stroke-miterlimit:10;}
	.st35{fill:none;stroke:url(#SVGID_23_);stroke-width:1.8007;stroke-miterlimit:10;}
	.st36{opacity:0.51;fill:none;stroke:url(#SVGID_24_);stroke-width:2.8726;stroke-miterlimit:10;enable-background:new    ;}
	.st37{fill:url(#SVGID_25_);}
	.st38{fill:url(#SVGID_26_);}
	.st39{fill:url(#SVGID_27_);}
	.st40{fill:#34BDDC;}
	.st41{fill:#AD2C61;}
	.st42{fill:#1E3465;}
	.st43{fill:url(#SVGID_28_);}
	.st44{fill:url(#SVGID_29_);}
	.st45{fill:url(#SVGID_30_);}
	.st46{fill:url(#SVGID_31_);}
	.st47{fill:url(#SVGID_32_);}
	.st48{fill:url(#SVGID_33_);}
	.st49{fill:url(#SVGID_34_);}
	.st50{fill:url(#SVGID_35_);}
	.st51{fill:url(#SVGID_36_);}
	.st52{fill:url(#SVGID_37_);}
	.st53{fill:url(#SVGID_38_);}
	.st54{fill:#5AC6E3;}
	.st55{fill:url(#SVGID_39_);}
	.st56{fill:url(#SVGID_40_);}
	.st57{fill:#1989B2;}
	.st58{fill:url(#SVGID_41_);}
	.st59{fill:url(#SVGID_42_);}
	.st60{fill:url(#SVGID_43_);}
	.st61{fill:url(#SVGID_44_);}
	.st62{fill:url(#SVGID_45_);}
	.st63{fill:url(#SVGID_46_);}
	.st64{fill:url(#SVGID_47_);}
	.st65{fill:url(#SVGID_48_);}
	.st66{fill:url(#SVGID_49_);}
	.st67{fill:url(#SVGID_50_);}
	.st68{fill:url(#SVGID_51_);}
	.st69{fill:url(#SVGID_52_);}
	.st70{fill:url(#SVGID_53_);}
	.st71{fill:#913162;}
	.st72{fill:#C9255F;}
	.st73{fill:#3AB0CA;}
	.st74{fill:url(#SVGID_54_);}
	.st75{fill:#08A2BA;}
	.st76{fill:#4F87C6;}
	.st77{fill:url(#SVGID_55_);}
	.st78{fill:url(#SVGID_56_);}
	.st79{fill:url(#SVGID_57_);}
	.st80{fill:url(#SVGID_58_);}
	.st81{fill:url(#SVGID_59_);}
	.st82{fill:url(#SVGID_60_);}
	.st83{fill:none;stroke:url(#SVGID_61_);stroke-width:1.9005;stroke-miterlimit:10;}
	.st84{fill:none;stroke:url(#SVGID_62_);stroke-width:1.9005;stroke-miterlimit:10;}
	.st85{fill:url(#SVGID_63_);}
	.st86{fill:none;stroke:#75CEEA;stroke-width:1.9005;stroke-miterlimit:10;}
	.st87{fill:url(#SVGID_64_);}
	.st88{fill:url(#SVGID_65_);}
	.st89{fill:url(#SVGID_66_);}
	.st90{fill:url(#SVGID_67_);}
	.st91{fill:url(#SVGID_68_);}
	.st92{fill:url(#SVGID_69_);}
	.st93{fill:url(#SVGID_70_);}
	.st94{fill:url(#SVGID_71_);}
	.st95{fill:url(#SVGID_72_);}
	.st96{fill:url(#SVGID_73_);}
	.st97{fill:url(#SVGID_74_);}
	.st98{fill:url(#SVGID_75_);}
	.st99{fill:url(#SVGID_76_);}
	.st100{fill:url(#SVGID_77_);}
	.st101{fill:url(#SVGID_78_);stroke:#C5E8F6;stroke-width:1.0741;stroke-linejoin:round;stroke-miterlimit:10;}
	.st102{fill:url(#SVGID_79_);stroke:#C5E8F6;stroke-width:1.0741;stroke-linejoin:round;stroke-miterlimit:10;}
	.st103{fill:url(#SVGID_80_);}
	.st104{fill:url(#SVGID_81_);stroke:#FFFFFF;stroke-width:1.0741;stroke-linejoin:round;stroke-miterlimit:10;}
	.st105{fill:url(#SVGID_82_);stroke:#FFFFFF;stroke-width:1.0741;stroke-linejoin:round;stroke-miterlimit:10;}
	.st106{fill:url(#SVGID_83_);stroke:#FFFFFF;stroke-width:1.0741;stroke-linejoin:round;stroke-miterlimit:10;}
	.st107{fill:url(#SVGID_84_);}
	.st108{fill:url(#SVGID_85_);}
	.st109{fill:url(#SVGID_86_);stroke:#C5E8F6;stroke-width:1.0741;stroke-linejoin:round;stroke-miterlimit:10;}
	.st110{fill:url(#SVGID_87_);stroke:#C5E8F6;stroke-width:1.0741;stroke-linejoin:round;stroke-miterlimit:10;}
	.st111{fill:url(#SVGID_88_);}
	.st112{fill:url(#SVGID_89_);stroke:#FFFFFF;stroke-width:1.0741;stroke-linejoin:round;stroke-miterlimit:10;}
	.st113{fill:url(#SVGID_90_);stroke:#FFFFFF;stroke-width:1.0741;stroke-linejoin:round;stroke-miterlimit:10;}
	.st114{fill:url(#SVGID_91_);stroke:#FFFFFF;stroke-width:1.0741;stroke-linejoin:round;stroke-miterlimit:10;}
	.st115{fill:url(#SVGID_92_);}
	.st116{fill:url(#SVGID_93_);}
	.st117{fill:url(#SVGID_94_);}
	.st118{fill:url(#SVGID_95_);}
	.st119{fill:#632C45;}
	.st120{fill:#7A3853;}
	.st121{fill:url(#SVGID_96_);}
	.st122{fill:url(#SVGID_97_);}
	.st123{fill:url(#SVGID_98_);}
	.st124{fill:url(#SVGID_99_);}
	.st125{fill:url(#SVGID_100_);}
	.st126{fill:url(#SVGID_101_);}
	.st127{fill:url(#SVGID_102_);}
	.st128{fill:url(#SVGID_103_);}
	.st129{fill:url(#SVGID_104_);}
	.st130{fill:url(#SVGID_105_);}
	.st131{fill:#FFCCE0;}
	.st132{fill:url(#SVGID_106_);}
</style>
<rect x="-500.1" y="-21.5" class="st0" width="1301" height="618"/>
<radialGradient id="SVGID_1_" cx="-808.5709" cy="828.2426" r="1" gradientTransform="matrix(659.902 0 0 -833.735 533972.8125 690854.75)" gradientUnits="userSpaceOnUse">
	<stop  offset="0" style="stop-color:#2242B8"/>
	<stop  offset="5.578050e-02" style="stop-color:#1D399F"/>
	<stop  offset="0.1615" style="stop-color:#162A75"/>
	<stop  offset="0.2731" style="stop-color:#0F1D51;stop-opacity:0"/>
	<stop  offset="0.9487" style="stop-color:#0F1D51;stop-opacity:0"/>
	<stop  offset="0.9962" style="stop-color:#0F1D51;stop-opacity:0"/>
</radialGradient>
<path class="st1" d="M848.8-36.9H-463.3V593H848.8V-36.9z"/>
<path class="st2" d="M253.6,56.1c1.4,0,2.6-1.1,2.6-2.6c0-1.4-1.1-2.6-2.6-2.6c-1.4,0-2.6,1.1-2.6,2.6
	C251,54.9,252.2,56.1,253.6,56.1z"/>
<path class="st2" d="M567,396c1.4,0,2.6-1.1,2.6-2.6s-1.2-2.6-2.6-2.6c-1.4,0-2.6,1.1-2.6,2.6S565.5,396,567,396z"/>
<path class="st3" d="M497.8,110.3c1.4,0,2.6-1.1,2.6-2.6s-1.1-2.6-2.6-2.6c-1.4,0-2.6,1.1-2.6,2.6S496.4,110.3,497.8,110.3z"/>
<path class="st3" d="M738.2,60.5c1.4,0,2.6-1.1,2.6-2.6c0-1.4-1.1-2.6-2.6-2.6c-1.4,0-2.6,1.1-2.6,2.6
	C735.6,59.4,736.8,60.5,738.2,60.5z"/>
<path class="st4" d="M101.9,462.6c0.9,0,1.7-0.8,1.7-1.7c0-0.9-0.8-1.7-1.7-1.7s-1.7,0.8-1.7,1.7C100.2,461.8,101,462.6,101.9,462.6
	z"/>
<path class="st5" d="M119.4,36.9c0.9,0,1.7-0.8,1.7-1.7c0-0.9-0.8-1.7-1.7-1.7c-0.9,0-1.7,0.8-1.7,1.7
	C117.7,36.2,118.4,36.9,119.4,36.9z"/>
<path class="st5" d="M695.6,144.5c0.9,0,1.7-0.8,1.7-1.7c0-0.9-0.8-1.7-1.7-1.7c-0.9,0-1.7,0.8-1.7,1.7
	C693.9,143.8,694.6,144.5,695.6,144.5z"/>
<path class="st5" d="M607.4,506.3c0.9,0,1.7-0.8,1.7-1.7c0-0.9-0.8-1.7-1.7-1.7c-0.9,0-1.7,0.8-1.7,1.7
	C605.7,505.6,606.4,506.3,607.4,506.3z"/>
<linearGradient id="SVGID_2_" gradientUnits="userSpaceOnUse" x1="352.2619" y1="432.1206" x2="223.701" y2="477.1886" gradientTransform="matrix(1 0 0 -1 0 577)">
	<stop  offset="0" style="stop-color:#2242B8"/>
	<stop  offset="1" style="stop-color:#2242B8;stop-opacity:0"/>
</linearGradient>
<path class="st6" d="M192.9,105.7c-4.1,3.8-3,8.2,2.2,9.9l140.1,42.2c5.3,1.6,13-0.2,17-4l20-18.7c4.1-3.8,3-8.2-2.2-9.9L230,83
	c-5.3-1.6-13,0.2-17,4L192.9,105.7z"/>
<linearGradient id="SVGID_3_" gradientUnits="userSpaceOnUse" x1="406.9411" y1="385.7116" x2="545.6371" y2="385.7126" gradientTransform="matrix(1 0 0 -1 0 577)">
	<stop  offset="0" style="stop-color:#2242B8"/>
	<stop  offset="1" style="stop-color:#2242B8;stop-opacity:0"/>
</linearGradient>
<path class="st7" d="M392.4,176.6c-4.1,3.8-3,8.2,2.2,9.9l140.1,42.2c5.3,1.6,13-0.2,17-4l20-18.7c4.1-3.8,3-8.2-2.2-9.9
	l-140.1-42.2c-5.3-1.6-13,0.2-17,4L392.4,176.6z"/>
<path class="st8" d="M621.7,309.7c0,0-7.6,17.3-9.3,18.6c-1.7,1.3-11.5,9-11.5,9s-2.1-1.4-3.1,0.4s-1.8,2.6-1.8,2.6l1.2-0.2
	c0,0-3.5,4.8-2.8,5.1c0.7,0.3,2.9-0.2,4.6-1.4s3.4-4,3.4-4s13.9-8.7,15.8-11.1c1.9-2.4,7.7-12.7,7.4-13.8
	C625.2,313.2,625.2,304.8,621.7,309.7z"/>
<linearGradient id="SVGID_4_" gradientUnits="userSpaceOnUse" x1="691.9022" y1="197.5743" x2="705.5521" y2="200.5493" gradientTransform="matrix(1 0 0 -1 0 577)">
	<stop  offset="0" style="stop-color:#0679F6"/>
	<stop  offset="0.5869" style="stop-color:#19BDF8"/>
</linearGradient>
<path class="st9" d="M697.8,370.2c0,0,5.5,4.8,7.6,9.2c2.1,4.4,3.3,10.4-11.4-6.2L697.8,370.2z"/>
<linearGradient id="SVGID_5_" gradientUnits="userSpaceOnUse" x1="656.3306" y1="198.5975" x2="664.7606" y2="200.4336" gradientTransform="matrix(1 0 0 -1 0 577)">
	<stop  offset="0" style="stop-color:#0679F6"/>
	<stop  offset="0.5869" style="stop-color:#19BDF8"/>
</linearGradient>
<path class="st10" d="M659.6,367.4c0,0,2.5,0.9,3.3,2.2c0.8,1.3,0.7,7,0.6,8.9c-0.2,1.8-2,15-3.6,6c-1.6-9-2.1-14.2-2.1-14.2
	L659.6,367.4z"/>
<linearGradient id="SVGID_6_" gradientUnits="userSpaceOnUse" x1="693.6943" y1="242.7802" x2="639.6744" y2="208.1032" gradientTransform="matrix(1 0 0 -1 0 577)">
	<stop  offset="0" style="stop-color:#0679F6"/>
	<stop  offset="1" style="stop-color:#033367"/>
</linearGradient>
<path class="st11" d="M631.3,353.4c0,0,0.3-8.6,9.9-20.2c9.7-11.5,10.8-11.4,10.8-11.4s1.4,0.6,4.9,2.6s6.3,6.7,7.4,9.3
	c1,2.6,12.8,17.8,12.8,17.8s17.7,11.5,20.9,18.8c0,0-2.4,2.3-3.8,3.1c-1.4,0.8-15.4-13.6-21-16.2c-5.5-2.6-2.9-1.4-2.9-1.4
	c-0.9-0.7-17.1-18.7-17.8-19.3c-0.6-0.6-12.2,13.9-12.8,14.2c0,0,9.4,4.4,19.9,16.7c0,0,0.6,2.4-1,3.1S631.3,353.4,631.3,353.4z"/>
<linearGradient id="SVGID_7_" gradientUnits="userSpaceOnUse" x1="653.7982" y1="268.9729" x2="626.5482" y2="251.4818" gradientTransform="matrix(1 0 0 -1 0 577)">
	<stop  offset="0" style="stop-color:#0679F6"/>
	<stop  offset="0.5869" style="stop-color:#19BDF8"/>
</linearGradient>
<path class="st12" d="M625.6,306.9c0,0,6.7-1.7,8.1-1.1c1.4,0.6,20,14.5,20.1,17.4c0.3,7-10.2,9.8-11.8,9.4s-7.7-6.7-9-7.2
	c-1.4-0.5-6.2-0.2-7.3-2.6c-1-2.3-0.8-4-2.1-6C622.2,314.9,621.8,309.4,625.6,306.9z"/>
<path class="st13" d="M624.7,300c0,0-0.2,4.2-3.2,5.7c-3,1.4-3.2,2.2-3.1,3.4c0.1,1.2,0,2.8-1.2,2.8c-1.2-0.1-4.7,0.2-5-5.4
	C612,300.8,624.7,300,624.7,300z"/>
<path class="st14" d="M621.9,303c0.1,0.2,3.1,4.2,4.2,4.4s1.9,10.9,1.9,10.9c-3.6-1.9-4.3-6.6-5.2-7.8s-1.4-2.6-2.6-3.2
	C619.1,306.6,621.9,303,621.9,303z"/>
<path class="st8" d="M618.8,299.2c0.2,0.2,6.7,3.6,2.6,10.7c0,0-0.7,1.9-4.8,0.2c-4.1-1.8-8.6-3.2-8.6-7.3
	C608,298.7,611.8,295,618.8,299.2z"/>
<path class="st13" d="M620,300.2c-0.8-0.2-1,1-1,1.4c-0.6-0.7-2.6-3.7-3.8-3.2c-1,0.5-6.2,3.5-6.6,1.4c0,0,0.2,5.9,2.2,7.4
	c0,0-3,1.4-3.6-1.5c-0.2-0.8,0-1.9-0.2-2.6c-0.3-1-1.3-1.6-1.9-2.3c-1-1.3-0.7-3.5,0.7-4.4c1-0.6,2.4-0.6,3.5-1.1
	c2.2-1.2,2.6-4.8,5-5.4c1.2-0.3,2.4,0.2,3.3,1c1,0.7,1.7,1.7,2.6,2.5c2.6,2.1,5.3,1.4,8.3,1.1c1.3-0.1,2.7-0.1,4-0.2
	c1.3-0.2,2.4-1,3.8-1.2c1.3-0.2,2.8,0.2,3.6,1.2c1.2,1.5,0.6,3.8-0.5,5.4c-2.4,3.8-7,6.6-11.7,5.9c-2.6-0.4-5-1.9-6.6-4.1
	C620.9,300.9,620.6,300.3,620,300.2z"/>
<path class="st8" d="M619.6,300.6c-0.2-0.1-1.2-1.7-0.1-2.8c1.1-1.1,4.7,2.5,3.4,4.2C621.5,303.8,619.6,300.6,619.6,300.6z"/>
<linearGradient id="SVGID_8_" gradientUnits="userSpaceOnUse" x1="631.4987" y1="262.0508" x2="625.4487" y2="270.4897" gradientTransform="matrix(1 0 0 -1 0 577)">
	<stop  offset="0" style="stop-color:#0679F6"/>
	<stop  offset="0.5869" style="stop-color:#19BDF8"/>
</linearGradient>
<path class="st15" d="M625,306.8c0.6,0.1,2.8-0.9,3.3-0.5c0.5,0.4,4.8,8.2,3.9,8.2c-0.9-0.2-4.6-0.5-5.1-1.4
	C626.6,312.1,625,306.8,625,306.8z"/>
<linearGradient id="SVGID_9_" gradientUnits="userSpaceOnUse" x1="625.4953" y1="260.2637" x2="620.8753" y2="266.7157" gradientTransform="matrix(1 0 0 -1 0 577)">
	<stop  offset="0" style="stop-color:#0679F6"/>
	<stop  offset="0.5869" style="stop-color:#19BDF8"/>
</linearGradient>
<path class="st16" d="M625,315.4c0.1,0.2-0.3,2.9-0.1,3.4s-2.9-5.7-2.3-8.7C622.6,310.1,623.9,312.2,625,315.4z"/>
<path class="st17" d="M12.3,379.2c-0.2,24.9,17.1,47.4,45.2,63.8l36.2-21c-18.9-11-30.5-26.1-30.3-42.8H12.3z"/>
<path class="st18" d="M12.3,379.2l0.1,25.7c-0.2,24.9,17.1,47.4,45.2,63.8L57.5,443C29.5,426.6,12.2,404.1,12.3,379.2z"/>
<linearGradient id="SVGID_10_" gradientUnits="userSpaceOnUse" x1="93.8475" y1="131.672" x2="57.5336" y2="131.672" gradientTransform="matrix(1 0 0 -1 0 577)">
	<stop  offset="8.660240e-03" style="stop-color:#1D3A6C"/>
	<stop  offset="0.9573" style="stop-color:#2E76BB"/>
</linearGradient>
<path class="st19" d="M57.5,443l0.1,25.7l36.2-21L93.8,422L57.5,443z"/>
<path class="st17" d="M695.3,396c0.2,24.9-17.1,47.4-45.2,63.8l-36.2-21c18.9-11,30.5-26.1,30.3-42.8H695.3z"/>
<linearGradient id="SVGID_11_" gradientUnits="userSpaceOnUse" x1="649.9855" y1="136.2735" x2="695.2667" y2="136.2735" gradientTransform="matrix(1 0 0 -1 0 577)">
	<stop  offset="8.660240e-03" style="stop-color:#1D3A6C"/>
	<stop  offset="0.9573" style="stop-color:#2E76BB"/>
</linearGradient>
<path class="st20" d="M695.3,396l-0.1,25.7c0.2,24.9-17.1,47.4-45.2,63.8l0.1-25.7C678.1,443.4,695.4,421,695.3,396z"/>
<linearGradient id="SVGID_12_" gradientUnits="userSpaceOnUse" x1="613.7556" y1="114.873" x2="650.0655" y2="114.873" gradientTransform="matrix(1 0 0 -1 0 577)">
	<stop  offset="8.660240e-03" style="stop-color:#1D3A6C"/>
	<stop  offset="0.9573" style="stop-color:#2E76BB"/>
</linearGradient>
<path class="st21" d="M650.1,459.8l-0.1,25.7l-36.2-20.9l0.1-25.8L650.1,459.8z"/>
<linearGradient id="SVGID_13_" gradientUnits="userSpaceOnUse" x1="605.7603" y1="329.2722" x2="613.1102" y2="327.1432" gradientTransform="matrix(1 0 0 -1 0 577)">
	<stop  offset="0" style="stop-color:#0679F6"/>
	<stop  offset="0.5869" style="stop-color:#19BDF8"/>
</linearGradient>
<path class="st22" d="M611.6,238.6c0,0-4.1,2.2-4.2,3.4c-0.1,1.2-4.4,16.2-2.6,16.4c1.8,0.2,8.7-9.3,9.6-12.7
	C615.2,242.1,611.6,238.6,611.6,238.6z"/>
<linearGradient id="SVGID_14_" gradientUnits="userSpaceOnUse" x1="634.5256" y1="315.1536" x2="641.8876" y2="315.1536" gradientTransform="matrix(1 0 0 -1 0 577)">
	<stop  offset="0" style="stop-color:#0679F6"/>
	<stop  offset="0.5869" style="stop-color:#19BDF8"/>
</linearGradient>
<path class="st23" d="M638,252.5c0,0-2.4,0.6-2.5,3.1c-0.1,2.5-0.4,7.8-0.6,9.8c-0.3,1.8-0.6,7.3,0.6,5.5c1.2-1.8,7-10.8,6.5-13.8
	C641.4,254.2,638,252.5,638,252.5z"/>
<linearGradient id="SVGID_15_" gradientUnits="userSpaceOnUse" x1="687.0514" y1="351.1948" x2="639.8313" y2="315.9668" gradientTransform="matrix(1 0 0 -1 0 577)">
	<stop  offset="0" style="stop-color:#0679F6"/>
	<stop  offset="1" style="stop-color:#033367"/>
</linearGradient>
<path class="st24" d="M686.9,232.8c0,0-16.4,22.4-19.8,22.9c-3.4,0.5-27.3,2.6-27.3,2.6s-2.8-1.7-1.8-5c1-3.3,19.4-7.4,19.8-8.1
	c0.5-0.7,3.1-10.3,4.4-12.4c1.3-2.1,4.6-7.4,4.6-7.4L686.9,232.8z"/>
<linearGradient id="SVGID_16_" gradientUnits="userSpaceOnUse" x1="676.9218" y1="364.7638" x2="629.7118" y2="329.5368" gradientTransform="matrix(1 0 0 -1 0 577)">
	<stop  offset="0" style="stop-color:#0679F6"/>
	<stop  offset="1" style="stop-color:#033367"/>
</linearGradient>
<path class="st25" d="M680,232.6c-0.5,0.2-11,1.8-17.5,1.4c-0.5,0-25.1,5.8-28.1,6.5c-3,0.7-19,4.7-19,4.7s-6-3-4-6.3
	c2-3.2,23-10.6,25.9-12.7c3-2.1,10.3-12.7,18.2-15.8C663.5,207.3,680,232.6,680,232.6z"/>
<linearGradient id="SVGID_17_" gradientUnits="userSpaceOnUse" x1="539.407" y1="346.112" x2="678.097" y2="346.113" gradientTransform="matrix(1 0 0 -1 0 577)">
	<stop  offset="0" style="stop-color:#2242B8"/>
	<stop  offset="1" style="stop-color:#2242B8;stop-opacity:0"/>
</linearGradient>
<path class="st26" d="M524.8,216.2c-4.1,3.8-3,8.2,2.2,9.9l140.1,42.2c5.3,1.6,13-0.2,17-4l20-18.7c4.1-3.8,3-8.2-2.2-9.9
	l-140.1-42.2c-5.3-1.6-13,0.2-17,4L524.8,216.2z"/>
<linearGradient id="SVGID_18_" gradientUnits="userSpaceOnUse" x1="705.2636" y1="350.8303" x2="717.4135" y2="358.8723" gradientTransform="matrix(1 0 0 -1 0 577)">
	<stop  offset="0" style="stop-color:#0679F6"/>
	<stop  offset="1" style="stop-color:#033367"/>
</linearGradient>
<path class="st27" d="M706.8,204.9c0.5-0.2,15,18.2,15.8,21.9c0.8,3.7-6.6,13.4-7.8,13.4c-1.3,0-0.2-6-1-13c0,0-9-5.7-10.9-8.1
	C700.9,216.7,705.3,205.3,706.8,204.9z"/>
<linearGradient id="SVGID_19_" gradientUnits="userSpaceOnUse" x1="655.1855" y1="364.2231" x2="708.7667" y2="364.2231" gradientTransform="matrix(1 0 0 -1 0 577)">
	<stop  offset="0" style="stop-color:#0679F6"/>
	<stop  offset="0.5869" style="stop-color:#19BDF8"/>
</linearGradient>
<path class="st28" d="M703.3,196.4c0,0-8.8-5.3-16.2-4.7c-7.4,0.6-15.3,10.6-20.1,12.5c-4.8,1.9-11.8,6.5-11.8,6.5
	s2.3,21.4,26.2,23.1c0,0,5.5,1.8,10.3-5.8c4.8-7.6,5.8-6.8,9.2-8.2C704.1,218.2,715.4,206.7,703.3,196.4z"/>
<path class="st29" d="M699.6,194.5c0,0-4.9,1.5-5.5,5.3c-0.6,3.8-1.8,12.2,3.5,10.3c5.3-1.8,7.8-5.3,7.8-7.7
	C705.3,200.1,706.1,195.4,699.6,194.5z"/>
<path class="st30" d="M712.7,194.7c-0.9,5-2.2,12.2-7,11.2c-4.9-1-9.6-9.6-8.7-14.6c0.9-5,4.3-7,9.2-5.8
	C711,186.4,713.6,189.6,712.7,194.7z"/>
<path class="st31" d="M702.8,188.6c0.1-0.3,6.8,4.9,9.3,5.1c2.5,0.2,2.4,1.8,3.2,2.2c0.8,0.3,0.2-12.6-9.2-12.6
	c-9.4,0-7.7,2.6-7.7,2.6s-3.1,0.7-3.7,3.7c-0.6,3-0.5,4.5,0.8,5.4c1.2,1,1.4,0.6,2.2,0.5c0.8-0.1,0.7-1.9,1-3
	C699,191.5,701.8,193,702.8,188.6z"/>
<path class="st30" d="M698.3,194.5c0.2,1.8-0.2,2.8-1.8,2.7s-2.9-1.3-3-3c-0.2-1.8,1-2.6,2.5-2.5
	C697.6,191.9,698.1,192.9,698.3,194.5z"/>
<path class="st31" d="M696.2,191.7c0,0,1.4,6.1,2.4,6s1.5-6.4,0-6.7C697.1,190.5,697,190.4,696.2,191.7z"/>
<linearGradient id="SVGID_20_" gradientUnits="userSpaceOnUse" x1="388.34" y1="204.805" x2="388.34" y2="36.077" gradientTransform="matrix(1 0 0 -1 0 577)">
	<stop  offset="0" style="stop-color:#2242B8"/>
	<stop  offset="1" style="stop-color:#2242B8;stop-opacity:0"/>
</linearGradient>
<path class="st32" d="M418.2,398h-59.7v194.3h59.7V398z"/>
<linearGradient id="SVGID_21_" gradientUnits="userSpaceOnUse" x1="389.58" y1="187.356" x2="389.58" y2="105.166" gradientTransform="matrix(1 0 0 -1 0 577)">
	<stop  offset="0" style="stop-color:#75CEEA;stop-opacity:0"/>
	<stop  offset="0.9705" style="stop-color:#75CEEA"/>
</linearGradient>
<path class="st33" d="M389.6,471.1c38.4,0,69.5-18.1,69.5-40.4c0-22.3-31.1-40.4-69.5-40.4s-69.5,18.1-69.5,40.4
	C320.1,453,351.2,471.1,389.6,471.1z"/>
<linearGradient id="SVGID_22_" gradientUnits="userSpaceOnUse" x1="389.5805" y1="150.326" x2="389.5805" y2="83.142" gradientTransform="matrix(1 0 0 -1 0 577)">
	<stop  offset="0" style="stop-color:#75CEEA;stop-opacity:0"/>
	<stop  offset="0.9705" style="stop-color:#75CEEA"/>
</linearGradient>
<path class="st34" d="M389.6,493.3c31.4,0,56.8-14.8,56.8-33c0-18.2-25.4-33-56.8-33c-31.4,0-56.8,14.8-56.8,33
	C332.8,478.5,358.2,493.3,389.6,493.3z"/>
<linearGradient id="SVGID_23_" gradientUnits="userSpaceOnUse" x1="389.58" y1="113.208" x2="389.58" y2="61.689" gradientTransform="matrix(1 0 0 -1 0 577)">
	<stop  offset="0" style="stop-color:#75CEEA;stop-opacity:0"/>
	<stop  offset="0.9705" style="stop-color:#75CEEA"/>
</linearGradient>
<path class="st35" d="M389.6,514.8c24.1,0,43.6-11.3,43.6-25.3c0-14-19.5-25.3-43.6-25.3c-24.1,0-43.6,11.3-43.6,25.3
	C346,503.5,365.5,514.8,389.6,514.8z"/>
<linearGradient id="SVGID_24_" gradientUnits="userSpaceOnUse" x1="389.5826" y1="249.179" x2="389.5826" y2="54.44" gradientTransform="matrix(1 0 0 -1 0 577)">
	<stop  offset="0" style="stop-color:#75CEEA;stop-opacity:0"/>
	<stop  offset="0.9712" style="stop-color:#E01074"/>
</linearGradient>
<path class="st36" d="M389.6,521.9c91.9,0,166.4-43.3,166.4-96.6s-74.5-96.6-166.4-96.6s-166.4,43.3-166.4,96.6
	S297.7,521.9,389.6,521.9z"/>
<path class="st13" d="M261.9,82.9c4.8,2.8,6,7.1,2.5,10.7l-19.9,20c-4.2,4.2-13.5,5.7-20.9,3.2L189,105.3c-1.2-0.4-2.2-0.9-3.2-1.4
	c-4.8-2.8-6-7.1-2.5-10.7l19.9-20c4.2-4.2,13.6-5.7,20.9-3.2l34.6,11.6C259.9,81.9,261,82.4,261.9,82.9z"/>
<linearGradient id="SVGID_25_" gradientUnits="userSpaceOnUse" x1="181.2175" y1="469.1716" x2="266.4025" y2="469.1716" gradientTransform="matrix(1 0 0 -1 0 577)">
	<stop  offset="0" style="stop-color:#307FAB"/>
	<stop  offset="0.9965" style="stop-color:#005587"/>
</linearGradient>
<path class="st37" d="M264.4,93.7l-19.9,20c-4.2,4.2-13.5,5.7-20.9,3.2L189,105.3c-1.2-0.4-2.2-0.9-3.2-1.4c-3-1.7-4.5-4-4.5-6.3
	l-0.1,8.3c0,2.3,1.6,4.6,4.5,6.3c1,0.6,2,1,3.2,1.4l34.6,11.6c7.4,2.5,16.7,1,20.9-3.2l19.9-20c1.4-1.4,2-2.9,2-4.4l0.1-8.3
	C266.4,90.8,265.8,92.3,264.4,93.7z"/>
<path class="st13" d="M582.3,190.1c4.8,2.8,6,7.1,2.5,10.7l-19.9,20c-4.2,4.2-13.6,5.7-20.9,3.2l-34.6-11.6
	c-1.2-0.4-2.2-0.9-3.2-1.4c-4.8-2.8-6-7.1-2.5-10.7l19.9-20c4.2-4.2,13.6-5.7,20.9-3.2l34.6,11.6
	C580.3,189.2,581.4,189.7,582.3,190.1z"/>
<linearGradient id="SVGID_26_" gradientUnits="userSpaceOnUse" x1="501.6415" y1="361.9626" x2="586.8255" y2="361.9626" gradientTransform="matrix(1 0 0 -1 0 577)">
	<stop  offset="0" style="stop-color:#307FAB"/>
	<stop  offset="0.9965" style="stop-color:#005587"/>
</linearGradient>
<path class="st38" d="M584.8,200.9l-19.9,20c-4.2,4.2-13.6,5.7-20.9,3.2l-34.6-11.6c-1.2-0.4-2.2-0.9-3.2-1.4c-3-1.7-4.5-4-4.5-6.3
	l-0.1,8.3c0,2.3,1.6,4.6,4.5,6.3c1,0.6,2,1,3.2,1.4l34.6,11.6c7.4,2.5,16.7,1,20.9-3.2l19.9-20c1.4-1.4,2-2.9,2-4.4l0.1-8.3
	C586.8,198,586.2,199.5,584.8,200.9z"/>
<path class="st13" d="M706.8,228.4c4.8,2.8,6,7.1,2.5,10.7l-19.9,20c-4.2,4.2-13.5,5.7-20.9,3.2l-34.6-11.6
	c-1.2-0.4-2.2-0.9-3.2-1.4c-4.8-2.8-6-7.1-2.5-10.7l19.9-20c4.2-4.2,13.6-5.7,20.9-3.2l34.6,11.6
	C704.8,227.4,705.8,227.9,706.8,228.4z"/>
<linearGradient id="SVGID_27_" gradientUnits="userSpaceOnUse" x1="626.0955" y1="323.7204" x2="711.2856" y2="323.7204" gradientTransform="matrix(1 0 0 -1 0 577)">
	<stop  offset="0" style="stop-color:#307FAB"/>
	<stop  offset="0.9965" style="stop-color:#005587"/>
</linearGradient>
<path class="st39" d="M709.3,239.1l-19.9,20c-4.2,4.2-13.5,5.7-20.9,3.2l-34.6-11.6c-1.2-0.4-2.2-0.9-3.2-1.4c-3-1.7-4.5-4-4.5-6.3
	l-0.1,8.3c0,2.3,1.6,4.6,4.5,6.3c1,0.6,2,1,3.2,1.4l34.6,11.6c7.4,2.5,16.6,1,20.9-3.2l19.9-20c1.4-1.4,2-2.9,2-4.4l0.1-8.3
	C711.3,236.2,710.6,237.8,709.3,239.1z"/>
<path class="st40" d="M277.6,167.3l-3.8-3.6c-0.7-0.6-1.7-0.8-2.6-0.5l-22.5,7.5c-1.9,0.6-3.3,2.5-3.3,4.5l-0.1,23.2
	c0,0.8,0.3,1.4,0.8,1.9l3.8,3.6l0.1-3.3l21.1-7c2.2-0.7,3.6-2.7,3.6-5l0.1-20.5L277.6,167.3z"/>
<path class="st41" d="M510.4,374.2l-0.3,9.1c-0.1,18.2-12.1,36.5-36,50.4c-48.2,28.1-126.7,28.1-175.2,0
	c-24.4-14.1-36.6-32.6-36.6-51.1l0.3-9.1c-0.1,18.5,12.2,37,36.6,51.1c48.6,28.1,127,28.1,175.2,0
	C498.4,410.6,510.4,392.5,510.4,374.2z"/>
<path class="st42" d="M510.4,374.2c0.1-39.6-55.3-71.9-123.7-72.1c-68.4-0.2-124,31.8-124.1,71.4c-0.1,39.6,55.3,71.9,123.7,72.1
	C454.8,445.8,510.3,413.8,510.4,374.2z"/>
<path class="st42" d="M416,272.5l-0.1,29.6l-12.4,29l0.1-29.7L416,272.5z"/>
<path class="st42" d="M416,272.5l-12.4,29c-12.6-1.8-25.4-1.6-37.4,0.3L351.9,273C372.1,269.7,394.1,269.3,416,272.5z"/>
<path class="st42" d="M403.6,301.4l-0.1,29.7c-12.6-1.8-25.4-1.6-37.4,0.3l0.1-29.7C378.1,299.8,391,299.5,403.6,301.4z"/>
<path class="st42" d="M366.1,301.7l-0.2,29.7l-14.2-28.7l0.1-29.7L366.1,301.7z"/>
<path class="st42" d="M472.1,290.6L436.4,312c-4.6-2.6-9.9-4.9-15.8-6.7c-5.4-1.7-11.1-3-16.9-3.8l12.4-29
	C437.9,275.7,456.9,282,472.1,290.6z"/>
<path class="st42" d="M436.3,311.9l-0.1,29.7c-4.6-2.6-9.9-4.9-15.8-6.7c-5.4-1.7-11.1-3-16.9-3.8l0.1-29.7
	c5.8,0.9,11.4,2.1,16.9,3.8C426.4,307,431.7,309.4,436.3,311.9z"/>
<path class="st42" d="M472.1,290.6l-0.1,29.6l-35.8,21.4l0.1-29.7L472.1,290.6z"/>
<path class="st42" d="M351.8,273l14.2,28.7c-12,2-23.1,5.8-32.1,11.1L296.9,292C312,283,331,276.4,351.8,273z"/>
<path class="st42" d="M366.1,301.7l-0.1,29.7c-12,2-23.1,5.8-32.1,11.1l0.1-29.7C342.9,307.4,354.1,303.7,366.1,301.7z"/>
<path class="st42" d="M334,312.8l-0.1,29.7l-37.1-20.8L297,292L334,312.8z"/>
<path class="st42" d="M473.3,291.3c15,8.6,26,19.4,31.8,31.2l-49.6,8.2c-3.4-6.8-9.7-13-18.5-18.2c-0.2-0.2-0.6-0.3-0.8-0.5
	l35.8-21.4C472.5,290.8,472.9,291,473.3,291.3z"/>
<path class="st42" d="M505.2,322.4l-0.1,29.7l-49.6,8.2l0.2-29.7L505.2,322.4z"/>
<path class="st42" d="M455.6,330.6l-0.1,29.7c-3.4-6.8-9.7-13-18.5-18.2c-0.2-0.2-0.6-0.3-0.8-0.5l0.1-29.7c0.2,0.2,0.6,0.3,0.8,0.5
	C446,317.5,452.3,323.8,455.6,330.6z"/>
<path class="st42" d="M315.9,331.8l-0.1,29.7l-50-7.3l0.1-29.7L315.9,331.8z"/>
<path class="st42" d="M334,312.8l-0.1,29.7c-4.5,2.6-8.4,5.8-11.6,9.2c-3,3.2-5.1,6.5-6.6,9.8l0.1-29.7c1.4-3.4,3.6-6.6,6.6-9.8
	C325.6,318.6,329.6,315.5,334,312.8z"/>
<path class="st42" d="M334,312.8c-4.5,2.6-8.4,5.8-11.6,9.2c-3,3.2-5.1,6.5-6.6,9.8l-50-7.3c5.4-12.7,16.4-23.7,31-32.5L334,312.8z"
	/>
<path class="st42" d="M458.4,342.3l-0.1,29.7c0-4-1-7.9-2.8-11.7l0.1-29.7C457.5,334.4,458.4,338.3,458.4,342.3z"/>
<linearGradient id="SVGID_28_" gradientUnits="userSpaceOnUse" x1="251.934" y1="214.1607" x2="434.738" y2="212.0477" gradientTransform="matrix(1 0 0 -1 0 577)">
	<stop  offset="0" style="stop-color:#5AC6E3"/>
	<stop  offset="0.9965" style="stop-color:#1989B2"/>
</linearGradient>
<path class="st43" d="M510,342.3l-0.1,29.7c0,5.7-1.2,11.5-3.7,17.3l0.1-29.7C508.8,353.8,510,348,510,342.3z"/>
<path class="st42" d="M505.2,322.4c5.8,11.8,6.6,24.5,1.1,37.1l-50-7.3c3.1-7.3,2.7-14.7-0.7-21.7L505.2,322.4z"/>
<path class="st42" d="M506.3,359.5l-0.1,29.7l-50-7.3l0.1-29.7L506.3,359.5z"/>
<path class="st17" d="M533.8,373c-5.4,12.7-16.4,23.7-31,32.5l-37.1-20.8c4.5-2.6,8.4-5.8,11.6-9.2c3-3.2,5.1-6.5,6.6-9.8L533.8,373
	z"/>
<linearGradient id="SVGID_29_" gradientUnits="userSpaceOnUse" x1="306.744" y1="124.3814" x2="575.507" y2="186.0084" gradientTransform="matrix(1 0 0 -1 0 577)">
	<stop  offset="8.660240e-03" style="stop-color:#1D3A6C"/>
	<stop  offset="0.9573" style="stop-color:#2E76BB"/>
</linearGradient>
<path class="st44" d="M533.8,373l-0.1,29.7c-5.4,12.7-16.4,23.7-31,32.5l0.1-29.7C517.4,396.7,528.4,385.7,533.8,373z"/>
<linearGradient id="SVGID_30_" gradientUnits="userSpaceOnUse" x1="465.5676" y1="167.076" x2="502.7606" y2="167.076" gradientTransform="matrix(1 0 0 -1 0 577)">
	<stop  offset="8.660240e-03" style="stop-color:#1D3A6C"/>
	<stop  offset="0.9573" style="stop-color:#2E76BB"/>
</linearGradient>
<path class="st45" d="M502.8,405.5l-0.1,29.6l-37.1-20.8l0.1-29.6L502.8,405.5z"/>
<path class="st42" d="M316.6,353.4c3.4,6.8,9.7,13,18.5,18.2c0.2,0.2,0.6,0.3,0.8,0.5l-35.8,21.4c-0.4-0.2-0.9-0.5-1.3-0.7
	c-15-8.6-26-19.4-31.8-31.2L316.6,353.4z"/>
<linearGradient id="SVGID_31_" gradientUnits="userSpaceOnUse" x1="299.9965" y1="179.357" x2="335.8635" y2="179.357" gradientTransform="matrix(1 0 0 -1 0 577)">
	<stop  offset="3.474070e-03" style="stop-color:#005587"/>
	<stop  offset="1" style="stop-color:#307FAB"/>
</linearGradient>
<path class="st46" d="M335.9,372.1l-0.1,29.7L300,423.2l0.1-29.7L335.9,372.1z"/>
<linearGradient id="SVGID_32_" gradientUnits="userSpaceOnUse" x1="292.4655" y1="186.6585" x2="561.2224" y2="248.2845" gradientTransform="matrix(1 0 0 -1 0 577)">
	<stop  offset="4.266950e-02" style="stop-color:#2E76BB"/>
	<stop  offset="0.9913" style="stop-color:#1D3A6C"/>
</linearGradient>
<path class="st47" d="M300.1,393.5l-0.1,29.7c-0.4-0.2-0.9-0.5-1.3-0.7c-15-8.6-26-19.4-31.8-31.2l0.1-29.7
	c5.8,11.8,16.8,22.6,31.8,31.2C299.3,393,299.7,393.3,300.1,393.5z"/>
<linearGradient id="SVGID_33_" gradientUnits="userSpaceOnUse" x1="251.3366" y1="162.9061" x2="434.1446" y2="160.793" gradientTransform="matrix(1 0 0 -1 0 577)">
	<stop  offset="0" style="stop-color:#5AC6E3"/>
	<stop  offset="0.9965" style="stop-color:#1989B2"/>
</linearGradient>
<path class="st48" d="M475.2,392l-0.1,29.7c-15.1,9-34.1,15.6-55,19l0.1-29.7C441.2,407.6,460.2,401,475.2,392z"/>
<path class="st42" d="M475.2,392c-15.1,9-34.1,15.6-55,19l-14.2-28.7c12-2,23.1-5.8,32.1-11.1L475.2,392z"/>
<path class="st42" d="M420.3,411l-0.1,29.7L406,412l0.1-29.7L420.3,411z"/>
<linearGradient id="SVGID_34_" gradientUnits="userSpaceOnUse" x1="305.0494" y1="131.7736" x2="573.8103" y2="193.3997" gradientTransform="matrix(1 0 0 -1 0 577)">
	<stop  offset="4.266950e-02" style="stop-color:#2E76BB"/>
	<stop  offset="0.9913" style="stop-color:#1D3A6C"/>
</linearGradient>
<path class="st49" d="M420.3,411l-0.1,29.7c-20.2,3.4-42.2,3.8-64.1,0.6l0.1-29.7C378.1,414.8,400.1,414.4,420.3,411z"/>
<path class="st42" d="M406.1,382.3l14.2,28.7c-20.2,3.4-42.2,3.8-64.1,0.6l12.5-29C381.2,384.5,394.1,384.3,406.1,382.3z"/>
<path class="st13" d="M328.2,427l-12.4,29c-21.9-3.2-41-9.6-56.2-18.1l35.8-21.4c4.6,2.6,9.9,4.9,15.8,6.7
	C316.9,425,322.5,426.2,328.2,427z"/>
<linearGradient id="SVGID_35_" gradientUnits="userSpaceOnUse" x1="341.7964" y1="129.2261" x2="297.7645" y2="110.2091" gradientTransform="matrix(1 0 0 -1 0 577)">
	<stop  offset="0" style="stop-color:#01FFFF"/>
	<stop  offset="0.9969" style="stop-color:#2242B8"/>
</linearGradient>
<path class="st50" d="M328.2,427l-0.1,29.7l-12.4,28.9l0.1-29.6L328.2,427z"/>
<linearGradient id="SVGID_36_" gradientUnits="userSpaceOnUse" x1="259.6025" y1="115.192" x2="315.8325" y2="115.192" gradientTransform="matrix(1 0 0 -1 0 577)">
	<stop  offset="0" style="stop-color:#01FFFF"/>
	<stop  offset="0.9969" style="stop-color:#2242B8"/>
</linearGradient>
<path class="st51" d="M315.8,456l-0.1,29.7c-21.9-3.2-41-9.6-56.2-18.1l0.1-29.7C274.9,446.4,293.9,452.8,315.8,456z"/>
<path class="st42" d="M218.6,362.8l0.1-29.7c0-3.4,0.7-6.7,2.2-10l-0.1,29.7C219.3,356.2,218.6,359.5,218.6,362.8z"/>
<linearGradient id="SVGID_37_" gradientUnits="userSpaceOnUse" x1="167.0325" y1="219.08" x2="171.9335" y2="219.08" gradientTransform="matrix(1 0 0 -1 0 577)">
	<stop  offset="0" style="stop-color:#5AC6E3"/>
	<stop  offset="0.9965" style="stop-color:#1989B2"/>
</linearGradient>
<path class="st52" d="M167.1,362.8l0.1-29.7c0,6.8,1.7,13.5,4.8,19.9l-0.1,29.7C168.7,376.3,167,369.6,167.1,362.8z"/>
<path class="st13" d="M220.8,323.2c-3.1,7.3-2.7,14.7,0.7,21.7l-49.6,8.2c-5.8-11.8-6.6-24.5-1.1-37.1L220.8,323.2z"/>
<linearGradient id="SVGID_38_" gradientUnits="userSpaceOnUse" x1="171.8596" y1="213.1995" x2="221.5305" y2="213.1995" gradientTransform="matrix(1 0 0 -1 0 577)">
	<stop  offset="3.125000e-03" style="stop-color:#2242B8"/>
	<stop  offset="1" style="stop-color:#01FFFF"/>
</linearGradient>
<path class="st53" d="M221.5,344.9l-0.2,29.7l-49.5,8.2l0.1-29.7L221.5,344.9z"/>
<path class="st42" d="M387.2,237.8l-0.1,29.7l-0.4,29.9l0.1-29.7L387.2,237.8z"/>
<path class="st42" d="M386.8,267.8l-0.1,29.7c-12.6-0.1-25.1,1.8-36.3,5.4l0.1-29.7C361.7,269.4,374.2,267.7,386.8,267.8z"/>
<path class="st42" d="M350.5,273.1l-0.1,29.8l-25.5-26.1l0.1-29.7L350.5,273.1z"/>
<path class="st42" d="M387.2,237.8l-0.4,29.9c-12.6-0.1-25.1,1.8-36.3,5.4L325,247C343.9,240.9,365.4,237.7,387.2,237.8z"/>
<path class="st42" d="M449.1,247.8l-0.1,29.8l-26.2,25.7l0.2-29.7L449.1,247.8z"/>
<path class="st42" d="M449.1,247.8l-26.2,25.7c-11.1-3.8-23.7-5.8-36.2-5.8l0.4-29.9C408.2,238,429.6,241.2,449.1,247.8z"/>
<path class="st42" d="M423,273.6l-0.1,29.7c-11.1-3.8-23.7-5.8-36.2-5.8l0.1-29.7C399.3,267.8,411.8,269.8,423,273.6z"/>
<path class="st42" d="M325,247.1l25.5,26.1c-5.6,1.8-10.9,4.1-15.7,6.9c-4.4,2.6-8.1,5.4-11.1,8.3l-44.5-15.2
	C290.6,261.8,306.6,253,325,247.1z"/>
<path class="st42" d="M350.5,273.1l-0.1,29.7c-5.6,1.8-10.9,4.1-15.7,6.9c-4.4,2.6-8.1,5.4-11.1,8.3l0.1-29.7c3-3,6.7-5.8,11.1-8.3
	C339.6,277.3,344.9,275,350.5,273.1z"/>
<path class="st42" d="M323.7,288.3l-0.1,29.7l-44.5-15.2l0.1-29.7L323.7,288.3z"/>
<path class="st42" d="M323.7,288.3l-0.1,29.7c-6.6,6.4-9.8,13.7-10,21l0.1-29.7C313.8,302,317.2,294.8,323.7,288.3z"/>
<path class="st42" d="M323.7,288.3c-6.6,6.4-9.8,13.7-10,21L262,309c0.2-12.2,5.7-24.6,17.1-35.8L323.7,288.3z"/>
<path class="st42" d="M313.8,309.3l-0.1,29.7l-51.7-0.3l0.1-29.7L313.8,309.3z"/>
<path class="st42" d="M313.7,339.2l0.1-29.7c0-0.1,0-0.2,0-0.2l-0.1,29.7C313.7,339,313.7,339.1,313.7,339.2z"/>
<path class="st42" d="M458.8,309.9l-0.1,29.7c0-7.2-3.1-14.4-9.4-20.8l0.1-29.7C455.6,295.5,458.8,302.7,458.8,309.9z"/>
<path class="st42" d="M494.2,274.5c10.7,11,16.3,23.4,16.2,36l-51.7-0.3c0.1-7.3-3-14.6-9.4-21L494.2,274.5z"/>
<path class="st42" d="M510.4,310.5l-0.1,29.7l-51.7-0.3l0.1-29.7L510.4,310.5z"/>
<path class="st42" d="M323.2,330.3l-0.1,29.7l-45,14.6l0.1-29.7L323.2,330.3z"/>
<path class="st54" d="M278.2,345l-0.1,29.7c-10.7-11-16.3-23.4-16.2-36l0.1-29.7C261.9,321.5,267.5,334,278.2,345z"/>
<path class="st42" d="M313.8,309.3c-0.1,7.3,3,14.6,9.4,21l-45,14.6c-10.7-11-16.3-23.4-16.2-36L313.8,309.3z"/>
<path class="st42" d="M493.3,346.3l-0.1,29.7l-44.6-15.2l0.1-29.7L493.3,346.3z"/>
<path class="st42" d="M510.4,310.5c-0.2,12.2-5.7,24.6-17.1,35.8l-44.5-15.2c6.6-6.4,9.8-13.7,9.9-21L510.4,310.5z"/>
<linearGradient id="SVGID_39_" gradientUnits="userSpaceOnUse" x1="293.3142" y1="185.9456" x2="562.5721" y2="247.6877" gradientTransform="matrix(1 0 0 -1 0 577)">
	<stop  offset="3.351060e-02" style="stop-color:#307FAB"/>
	<stop  offset="0.7267" style="stop-color:#004C81"/>
	<stop  offset="1" style="stop-color:#307FAB"/>
</linearGradient>
<path class="st55" d="M510.4,310.5l-0.1,29.7c-0.2,12.2-5.7,24.6-17.1,35.8l0.1-29.7C504.8,335,510.3,322.7,510.4,310.5z"/>
<path class="st42" d="M385.7,351.7l-0.1,29.7l-0.2,10.2l0.1-29.8L385.7,351.7z"/>
<linearGradient id="SVGID_40_" gradientUnits="userSpaceOnUse" x1="289.6825" y1="201.3787" x2="559.0585" y2="263.1477" gradientTransform="matrix(1 0 0 -1 0 577)">
	<stop  offset="4.266950e-02" style="stop-color:#2E76BB"/>
	<stop  offset="0.9913" style="stop-color:#1D3A6C"/>
</linearGradient>
<path class="st56" d="M323.4,371.5l-0.1,29.7c-9.2-3.1-17.5-6.9-24.7-11c-8.1-4.6-14.9-9.9-20.4-15.5l0.1-29.7
	c5.5,5.6,12.3,10.8,20.4,15.5C305.9,364.6,314.2,368.4,323.4,371.5z"/>
<path class="st42" d="M323.2,330.3c3.2,3.3,7.1,6.3,11.9,9.1c4.4,2.6,9.3,4.7,14.4,6.5l-26.2,25.7c-9.2-3.1-17.5-6.9-24.7-11
	c-8.1-4.6-14.9-9.9-20.4-15.5L323.2,330.3z"/>
<path class="st42" d="M349.5,345.8l-0.1,29.7l-26.2,25.8l0.1-29.8L349.5,345.8z"/>
<path class="st57" d="M493.3,346.3l-0.1,29.7c-11.4,11.3-27.4,20.1-45.8,26l0.1-29.7C465.9,366.3,481.8,357.6,493.3,346.3z"/>
<g>
	
		<linearGradient id="SVGID_41_" gradientUnits="userSpaceOnUse" x1="388.2205" y1="170.0713" x2="481.2446" y2="170.0713" gradientTransform="matrix(1 0 0 -1 0 577)">
		<stop  offset="1.047210e-03" style="stop-color:#2242B8"/>
		<stop  offset="0.2526" style="stop-color:#234AB5;stop-opacity:0.7482"/>
		<stop  offset="0.645" style="stop-color:#2760AC;stop-opacity:0.3554"/>
		<stop  offset="1" style="stop-color:#2B7AA1;stop-opacity:0"/>
	</linearGradient>
	<path class="st58" d="M388.2,412.1c0,0,36.3,29.3,72.2,28.6c0,0,16.6-7.4,20.8-17.6l-3.4-1.9v-29.8l-2.9-1.6c0,0-3.3,2.1-4.1,2.2
		c-0.8,0.1-32.9-18.9-32.9-18.9L388.2,412.1z"/>
</g>
<path class="st42" d="M493.3,346.3c-11.4,11.3-27.4,20.1-45.8,26l-25.5-26.1c5.6-1.8,10.9-4.2,15.7-6.9c4.4-2.6,8.1-5.4,11.1-8.3
	L493.3,346.3z"/>
<path class="st42" d="M447.6,372.3l-0.1,29.7L422,376l0.1-29.8L447.6,372.3z"/>
<linearGradient id="SVGID_42_" gradientUnits="userSpaceOnUse" x1="323.2715" y1="185.5575" x2="385.3405" y2="185.5575" gradientTransform="matrix(1 0 0 -1 0 577)">
	<stop  offset="0" style="stop-color:#5AC6E3"/>
	<stop  offset="0.9965" style="stop-color:#1989B2"/>
</linearGradient>
<path class="st59" d="M385.3,381.6l-0.1,29.7c-0.2,0-0.3,0-0.6,0c-21-0.2-42.1-3.4-61.4-10l0.1-29.7c19.4,6.6,40.5,9.8,61.4,10
	C384.9,381.6,385.2,381.6,385.3,381.6z"/>
<path class="st42" d="M385.7,351.7l-0.2,10.1l-0.2,19.8c-0.2,0-0.3,0-0.6,0c-21-0.2-42.1-3.4-61.4-10l26.2-25.7
	C360.6,349.7,373.2,351.6,385.7,351.7z"/>
<path class="st42" d="M385.6,361.8l-0.1,29.8l-0.2,19.8l0.1-29.7L385.6,361.8z"/>
<linearGradient id="SVGID_43_" gradientUnits="userSpaceOnUse" x1="302.484" y1="145.6426" x2="571.831" y2="207.4046" gradientTransform="matrix(1 0 0 -1 0 577)">
	<stop  offset="3.125000e-03" style="stop-color:#2242B8"/>
	<stop  offset="1" style="stop-color:#01FFFF"/>
</linearGradient>
<path class="st60" d="M449.5,385l-0.1,29.7c-19,6.2-40.5,9.4-62.2,9.3l0.1-29.7C409.1,394.3,430.5,391.1,449.5,385z"/>
<path class="st17" d="M424,358.9l25.5,26.1c-19,6.2-40.5,9.4-62.2,9.3l0.9-29.9C400.6,364.3,412.9,362.6,424,358.9z"/>
<path class="st17" d="M502.2,250c8.1,4.6,14.9,9.9,20.4,15.5l-45,14.6c-3.2-3.3-7.1-6.3-11.9-9.1c-4.4-2.6-9.3-4.7-14.4-6.5
	l26.2-25.7C486.7,242.2,495,245.8,502.2,250z"/>
<linearGradient id="SVGID_44_" gradientUnits="userSpaceOnUse" x1="477.5645" y1="289.285" x2="522.5966" y2="289.285" gradientTransform="matrix(1 0 0 -1 0 577)">
	<stop  offset="8.660240e-03" style="stop-color:#1D3A6C"/>
	<stop  offset="0.9573" style="stop-color:#2E76BB"/>
</linearGradient>
<path class="st61" d="M522.6,265.5l-0.1,29.8l-45,14.6l0.2-29.7L522.6,265.5z"/>
<linearGradient id="SVGID_45_" gradientUnits="userSpaceOnUse" x1="451.2665" y1="289.726" x2="477.6616" y2="289.726" gradientTransform="matrix(1 0 0 -1 0 577)">
	<stop  offset="0" style="stop-color:#5AC6E3"/>
	<stop  offset="0.9965" style="stop-color:#1989B2"/>
</linearGradient>
<path class="st62" d="M477.7,280.2l-0.1,29.7c-3.2-3.3-7.1-6.3-11.9-9.1c-4.4-2.6-9.3-4.7-14.4-6.5l0.1-29.7
	c5.1,1.8,10,3.9,14.4,6.5C470.5,273.9,474.5,277,477.7,280.2z"/>
<path class="st41" d="M510.4,298.8l-0.3,9.1c-0.1,18.2-12.1,36.5-36,50.4c-48.2,28.1-126.7,28.1-175.2,0
	c-24.4-14.1-36.6-32.6-36.6-51.1l0.3-9.1c-0.1,18.5,12.2,37,36.6,51.1c48.6,28.1,127,28.1,175.2,0
	C498.4,335.3,510.4,317,510.4,298.8z"/>
<linearGradient id="SVGID_46_" gradientUnits="userSpaceOnUse" x1="262.6207" y1="278.564" x2="510.4574" y2="278.564" gradientTransform="matrix(1 0 0 -1 0 577)">
	<stop  offset="0" style="stop-color:#01FFFF"/>
	<stop  offset="0.9969" style="stop-color:#2242B8"/>
</linearGradient>
<path class="st63" d="M473.9,247.7c48.6,28.1,48.8,73.5,0.6,101.5c-48.2,28.1-126.7,28.1-175.2,0c-48.6-28-48.8-73.5-0.6-101.5
	C346.9,219.6,425.3,219.6,473.9,247.7z"/>
<linearGradient id="SVGID_47_" gradientUnits="userSpaceOnUse" x1="293.9555" y1="291.3754" x2="479.0436" y2="291.3754" gradientTransform="matrix(1 0 0 -1 0 577)">
	<stop  offset="0" style="stop-color:#307FAB"/>
	<stop  offset="7.842120e-03" style="stop-color:#2D7CAC"/>
	<stop  offset="6.419010e-02" style="stop-color:#196AB0"/>
	<stop  offset="0.129" style="stop-color:#0B5DB3"/>
	<stop  offset="0.2099" style="stop-color:#0355B4"/>
	<stop  offset="0.355" style="stop-color:#0153B5"/>
	<stop  offset="0.3657" style="stop-color:#0A66BC"/>
	<stop  offset="0.3843" style="stop-color:#1681C6"/>
	<stop  offset="0.4057" style="stop-color:#2197CE"/>
	<stop  offset="0.4308" style="stop-color:#28A8D4"/>
	<stop  offset="0.4617" style="stop-color:#2EB3D9"/>
	<stop  offset="0.5051" style="stop-color:#31BADB"/>
	<stop  offset="0.6256" style="stop-color:#32BCDC"/>
</linearGradient>
<path class="st64" d="M451.7,247.7c36.2,21,36.5,54.9,0.4,75.8c-36,21-94.6,21-130.9,0c-36.2-21-36.5-54.9-0.4-75.8
	C356.9,226.8,415.5,226.8,451.7,247.7z"/>
<linearGradient id="SVGID_48_" gradientUnits="userSpaceOnUse" x1="316.7329" y1="278.5646" x2="456.3492" y2="278.5646" gradientTransform="matrix(1 0 0 -1 0 577)">
	<stop  offset="0" style="stop-color:#01FFFF"/>
	<stop  offset="0.9965" style="stop-color:#1989B2"/>
</linearGradient>
<path class="st65" d="M435.7,269.8c27.4,15.8,27.5,41.4,0.3,57.2c-27.2,15.8-71.3,15.8-98.7,0c-27.4-15.8-27.5-41.4-0.3-57.2
	C364.1,254.1,408.4,254.1,435.7,269.8z"/>
<g>
	
		<linearGradient id="SVGID_49_" gradientUnits="userSpaceOnUse" x1="392.7407" y1="299.4459" x2="477.9607" y2="299.4459" gradientTransform="matrix(1 0 0 -1 0 577)">
		<stop  offset="1.047210e-03" style="stop-color:#2242B8"/>
		<stop  offset="0.2526" style="stop-color:#234AB5;stop-opacity:0.7482"/>
		<stop  offset="0.645" style="stop-color:#2760AC;stop-opacity:0.3554"/>
		<stop  offset="1" style="stop-color:#2B7AA1;stop-opacity:0"/>
	</linearGradient>
	<path class="st66" d="M396.2,318.9l50.5-2.1l26.2-14c0,0,25.1-35.3-36.2-62.2C375.3,213.7,396.2,318.9,396.2,318.9z"/>
</g>
<linearGradient id="SVGID_50_" gradientUnits="userSpaceOnUse" x1="327.9823" y1="297.5426" x2="458.3003" y2="293.8486" gradientTransform="matrix(1 0 0 -1 0 577)">
	<stop  offset="3.040230e-02" style="stop-color:#32BCDC"/>
	<stop  offset="0.7215" style="stop-color:#0153B5"/>
	<stop  offset="1" style="stop-color:#307FAB"/>
</linearGradient>
<path class="st67" d="M440.6,243.8l-0.2,45c0,8-5.3,15.9-15.8,22c-21,12.2-55.3,12.2-76.5,0c-10.6-6.2-16-14.2-16-22.3l0.2-45
	c0,8.1,5.3,16.2,16,22.3c21.2,12.2,55.5,12.2,76.5,0C435.3,259.7,440.5,251.7,440.6,243.8z"/>
<path class="st42" d="M440.6,243.7c0-17.3-24.2-31.4-54.1-31.5c-29.9-0.1-54.2,13.9-54.2,31.2c0,17.3,24.2,31.4,54.1,31.5
	C416.3,275,440.6,261.1,440.6,243.7z"/>
<linearGradient id="SVGID_51_" gradientUnits="userSpaceOnUse" x1="328.2387" y1="333.6991" x2="457.9797" y2="330.0211" gradientTransform="matrix(1 0 0 -1 0 577)">
	<stop  offset="0" style="stop-color:#01FFFF"/>
	<stop  offset="0.9965" style="stop-color:#1989B2"/>
</linearGradient>
<path class="st68" d="M440.6,216.1l-0.2,27.9c0,8-5.3,15.9-15.8,22c-21,12.2-55.3,12.2-76.5,0c-10.6-6.2-16-14.2-16-22.3l0.2-27.9
	c0,8.1,5.3,16.2,16,22.3c21.2,12.2,55.5,12.2,76.5,0C435.3,232.1,440.5,224.1,440.6,216.1z"/>
<path class="st42" d="M440.6,216.1c0-17.3-24.2-31.4-54.1-31.5c-29.9-0.1-54.2,13.9-54.2,31.2c0,17.3,24.2,31.4,54.1,31.5
	C416.3,247.4,440.6,233.4,440.6,216.1z"/>
<linearGradient id="SVGID_52_" gradientUnits="userSpaceOnUse" x1="328.241" y1="361.701" x2="457.9819" y2="358.023" gradientTransform="matrix(1 0 0 -1 0 577)">
	<stop  offset="4.266950e-02" style="stop-color:#2E76BB"/>
	<stop  offset="0.9913" style="stop-color:#1D3A6C"/>
</linearGradient>
<path class="st69" d="M440.6,188.1l-0.2,27.9c0,8-5.3,15.9-15.8,22c-21,12.2-55.3,12.2-76.5,0c-10.6-6.2-16-14.2-16-22.3l0.2-27.9
	c0,8.1,5.3,16.2,16,22.3c21.2,12.2,55.5,12.2,76.5,0C435.3,204.1,440.5,196.1,440.6,188.1z"/>
<path class="st42" d="M440.6,188.2c0-17.3-24.2-31.4-54.1-31.5c-29.9-0.1-54.2,13.9-54.2,31.2c-0.1,17.3,24.2,31.4,54.1,31.5
	C416.3,219.5,440.6,205.5,440.6,188.2z"/>
<g>
	
		<linearGradient id="SVGID_53_" gradientUnits="userSpaceOnUse" x1="341.5085" y1="335.4224" x2="440.5316" y2="335.4224" gradientTransform="matrix(1 0 0 -1 0 577)">
		<stop  offset="1.047210e-03" style="stop-color:#2242B8"/>
		<stop  offset="0.2526" style="stop-color:#234AB5;stop-opacity:0.7482"/>
		<stop  offset="0.645" style="stop-color:#2760AC;stop-opacity:0.3554"/>
		<stop  offset="1" style="stop-color:#2B7AA1;stop-opacity:0"/>
	</linearGradient>
	<path class="st70" d="M341.5,217.6c0,0,43,64,99,56l-0.2-64.7L341.5,217.6z"/>
</g>
<path class="st71" d="M489.8,165.8l-0.1,5.7L440.6,221l0.2-5.8L489.8,165.8z"/>
<path class="st4" d="M440.4,116.4l49.4,49.4l-49,49.4l-98.5-0.1l-49.4-49.4l49-49.4L440.4,116.4z"/>
<path class="st72" d="M440.8,215.2l-0.2,5.8l-98.5-0.1l0.2-5.8L440.8,215.2z"/>
<path class="st4" d="M342.3,215.1l-0.2,5.8l-49.4-49.4l0.2-5.8L342.3,215.1z"/>
<path class="st71" d="M452.6,106.5v22.1l-12.6,4.2l0.1-32.9L452.6,106.5z"/>
<path class="st71" d="M463.7,117.7v11.2L451.1,144v-33L463.7,117.7z"/>
<path class="st71" d="M474.8,128.7v22.1l-12.7,4.2l0.1-32.9L474.8,128.7z"/>
<path class="st71" d="M319.3,142.9l-0.1,32.9l-3.1-3.1l0.1-32.9L319.3,142.9z"/>
<path class="st71" d="M316.2,139.8l-0.1,32.9l-12.2,4.2l0.1-22.1L316.2,139.8z"/>
<path class="st73" d="M303.9,154.8l-0.1,22.1l-11-11l0.1-22.1L303.9,154.8z"/>
<path class="st71" d="M330.4,154l-0.1,33l-3.1-3.1l0.1-33L330.4,154z"/>
<path class="st73" d="M315,165.8l-0.1,22.1l-8-7.9l0.1-22.1L315,165.8z"/>
<path class="st71" d="M327.3,150.9l-0.1,33l-12.2,4.1l0.1-22.1L327.3,150.9z"/>
<path class="st71" d="M341.5,165.1l-0.1,32.9l-3.1-3.1V162L341.5,165.1z"/>
<path class="st71" d="M338.3,162v32.9l-12.2,4.1l0.1-22.1L338.3,162z"/>
<path class="st73" d="M326.1,176.9l-0.1,22.1l-8-7.9l0.1-22.1L326.1,176.9z"/>
<linearGradient id="SVGID_54_" gradientUnits="userSpaceOnUse" x1="440.9296" y1="397.5735" x2="489.8806" y2="397.5735" gradientTransform="matrix(1 0 0 -1 0 577)">
	<stop  offset="8.660240e-03" style="stop-color:#1D3A6C"/>
	<stop  offset="0.9573" style="stop-color:#2E76BB"/>
</linearGradient>
<path class="st74" d="M489.9,143.7l-0.1,22.1l-48.9,49.4l0.1-22.1L489.9,143.7z"/>
<path class="st73" d="M342.5,193.2v22.1l-13.3-13.2l0.1-22.1L342.5,193.2z"/>
<path class="st75" d="M441,193.1l-0.1,22.1l-98.5,0.1v-22.1L441,193.1z"/>
<path class="st13" d="M352.9,94l-36.8,37l37.1,37l73.8,0.1l36.8-37l-37-37.1H352.9z"/>
<path class="st76" d="M426.9,94h-73.9l-0.4,0.3h74.5L426.9,94z"/>
<linearGradient id="SVGID_55_" gradientUnits="userSpaceOnUse" x1="304.6452" y1="454.3329" x2="499.6242" y2="358.4529" gradientTransform="matrix(1 0 0 -1 0 577)">
	<stop  offset="0" style="stop-color:#01FFFF"/>
	<stop  offset="0.9969" style="stop-color:#2242B8"/>
</linearGradient>
<path class="st77" d="M316.2,131l36.4-36.7h-10.8l-48.9,49.4l11,11l12.2-15l3.1,3.1l-12.2,15l8,7.9l12.2-15l3.1,3.1l-12.2,15l8,7.9
	l12.2-14.9l3.2,3.1L329.3,180l13.2,13.2l10.8-25.1L316.2,131z"/>
<linearGradient id="SVGID_56_" gradientUnits="userSpaceOnUse" x1="456.2471" y1="394.8257" x2="155.0901" y2="401.1647" gradientTransform="matrix(1 0 0 -1 0 577)">
	<stop  offset="0" style="stop-color:#01FFFF"/>
	<stop  offset="0.9969" style="stop-color:#2242B8"/>
</linearGradient>
<path class="st78" d="M353.3,168.1l-10.8,25.1l98.5-0.1l-13.9-25L353.3,168.1z"/>
<linearGradient id="SVGID_57_" gradientUnits="userSpaceOnUse" x1="365.9546" y1="352.8651" x2="536.1307" y2="546.2455" gradientTransform="matrix(1 0 0 -1 0 577)">
	<stop  offset="0" style="stop-color:#307FAB"/>
	<stop  offset="7.842120e-03" style="stop-color:#2D7CAC"/>
	<stop  offset="6.419010e-02" style="stop-color:#196AB0"/>
	<stop  offset="0.129" style="stop-color:#0B5DB3"/>
	<stop  offset="0.2099" style="stop-color:#0355B4"/>
	<stop  offset="0.355" style="stop-color:#0153B5"/>
	<stop  offset="0.5242" style="stop-color:#1073C1"/>
	<stop  offset="0.8601" style="stop-color:#32BCDC"/>
</linearGradient>
<path class="st79" d="M478,131.8l-12.6-6.6l-3.1-3.1l12.6,6.6l-7.9-7.9l-12.7-6.6l-3.1-3.1l12.6,6.6l-7.9-8l-12.6-6.6l-3.1-3.1
	l12.6,6.6l-12.3-12.2h-13.2l36.8,36.8l-36.8,37l13.9,25l48.9-49.4L478,131.8z"/>
<path class="st71" d="M446.2,131c0,0.3,0,0.6-0.1,0.9c0,0.2-0.1,0.5-0.1,0.8c0,0.3-0.1,0.6-0.2,0.9c-0.1,0.2-0.1,0.5-0.2,0.8
	c-0.1,0.3-0.2,0.6-0.2,0.9c-0.1,0.2-0.2,0.5-0.2,0.8c-0.1,0.3-0.2,0.6-0.2,0.8c-0.1,0.2-0.2,0.5-0.2,0.7c-0.1,0.3-0.2,0.6-0.4,0.9
	c-0.1,0.2-0.2,0.5-0.3,0.7c-0.2,0.3-0.3,0.6-0.5,0.9c-0.2,0.2-0.2,0.5-0.4,0.7c-0.2,0.3-0.4,0.7-0.6,1c-0.2,0.2-0.2,0.4-0.4,0.6
	c-0.2,0.4-0.6,0.7-0.8,1.1c-0.2,0.2-0.2,0.3-0.4,0.6c-0.1,0.1-0.2,0.2-0.2,0.2c-0.3,0.4-0.6,0.7-1,1.1c-0.1,0.1-0.2,0.2-0.2,0.3
	c-0.4,0.4-0.8,0.9-1.2,1.3c-0.1,0.1-0.2,0.2-0.2,0.2c-0.3,0.3-0.6,0.6-1,0.9c-0.2,0.2-0.6,0.5-0.8,0.7s-0.5,0.5-0.8,0.6
	c-0.3,0.2-0.6,0.5-0.9,0.7c-0.2,0.2-0.6,0.4-0.9,0.6s-0.6,0.5-1,0.7s-0.6,0.4-0.9,0.6c-0.3,0.2-0.7,0.5-1,0.6
	c-0.4,0.2-0.9,0.6-1.4,0.8c-0.9,0.5-1.8,1-2.6,1.4c-0.2,0.2-0.5,0.2-0.8,0.4c-0.7,0.3-1.4,0.7-2.2,1c-0.2,0.1-0.5,0.2-0.7,0.3
	c-1,0.4-1.9,0.8-2.9,1.2c-0.2,0.1-0.3,0.2-0.5,0.2c-0.8,0.3-1.7,0.6-2.5,0.9c-0.3,0.1-0.7,0.2-1,0.3c-0.5,0.2-1,0.3-1.4,0.4
	c-0.4,0.1-0.8,0.2-1.2,0.3c-0.5,0.2-1,0.2-1.4,0.4c-0.4,0.1-0.8,0.2-1.2,0.3c-0.5,0.1-1,0.2-1.4,0.3c-0.4,0.1-0.8,0.2-1.2,0.2
	c-0.5,0.1-1,0.2-1.5,0.3c-0.4,0.1-0.8,0.2-1.1,0.2c-1,0.2-2.2,0.4-3.2,0.6c-0.2,0-0.3,0-0.5,0.1c-1,0.2-1.9,0.2-2.9,0.3
	c-0.4,0-0.7,0.1-1.1,0.1c-0.6,0.1-1.2,0.1-1.8,0.2c-0.4,0-0.8,0.1-1.1,0.1c-0.6,0.1-1.3,0.1-1.9,0.1c-0.3,0-0.7,0-1,0.1
	c-0.6,0-1.1,0-1.7,0c-0.4,0-0.8,0-1.2,0c-0.6,0-1.2,0-1.8,0c-0.3,0-0.7,0-1,0c-0.6,0-1.1-0.1-1.7-0.1c-0.4,0-0.7,0-1.1-0.1
	c-0.6,0-1.2-0.1-1.8-0.2c-0.3,0-0.6-0.1-1-0.1c-0.7-0.1-1.4-0.2-2.2-0.2c-0.2,0-0.4,0-0.6-0.1c-0.9-0.1-1.8-0.2-2.7-0.3
	c-0.2,0-0.3-0.1-0.5-0.1c-0.8-0.1-1.5-0.2-2.3-0.4c-0.3-0.1-0.6-0.2-1-0.2c-0.6-0.1-1.2-0.2-1.8-0.3c-0.3-0.1-0.6-0.2-0.9-0.2
	c-0.6-0.2-1.3-0.3-1.9-0.4c-0.3-0.1-0.7-0.2-1-0.2c-0.6-0.2-1.2-0.3-1.8-0.5c-0.3-0.1-0.6-0.2-1-0.3c-0.9-0.2-1.8-0.6-2.7-0.9
	c-0.2-0.1-0.3-0.1-0.5-0.2c-1-0.3-2-0.7-3-1.1c-0.4-0.2-0.8-0.3-1.2-0.5c-0.3-0.2-0.6-0.2-1-0.4c-0.5-0.2-0.9-0.4-1.4-0.6
	c-0.3-0.2-0.6-0.2-0.9-0.4c-0.5-0.2-1-0.5-1.4-0.7c-0.2-0.2-0.5-0.2-0.7-0.4c-0.7-0.4-1.4-0.7-2.1-1.1
	c-11.3-6.6-16.9-15.2-16.9-23.8v2.9c0,8.6,5.6,17.3,16.9,23.8c0.6,0.4,1.4,0.8,2.1,1.1c0.2,0.2,0.5,0.2,0.7,0.3
	c0.5,0.2,1,0.5,1.4,0.7c0.3,0.2,0.6,0.2,0.9,0.4c0.5,0.2,0.9,0.4,1.4,0.6c0.3,0.2,0.6,0.2,1,0.4s0.6,0.2,0.9,0.4
	c0.1,0,0.2,0.1,0.3,0.1c1,0.4,2,0.8,3,1.1c0.2,0.1,0.3,0.1,0.5,0.2c0.9,0.3,1.8,0.6,2.7,0.9c0.2,0.1,0.3,0.1,0.5,0.2
	c0.2,0.1,0.3,0.1,0.6,0.2c0.6,0.2,1.1,0.3,1.8,0.5c0.3,0.1,0.7,0.2,1,0.2c0.6,0.2,1.3,0.3,1.9,0.4c0.2,0.1,0.5,0.1,0.7,0.2
	c0.1,0,0.2,0,0.2,0c0.6,0.2,1.2,0.2,1.8,0.3c0.3,0.1,0.6,0.2,1,0.2c0.8,0.2,1.5,0.2,2.3,0.4c0.2,0,0.3,0.1,0.4,0.1
	c0.9,0.2,1.8,0.2,2.7,0.3c0.2,0,0.4,0,0.6,0.1c0.7,0.1,1.4,0.2,2.2,0.2c0,0,0,0,0.1,0c0.3,0,0.6,0.1,1,0.1c0.6,0.1,1.2,0.1,1.8,0.2
	c0.4,0,0.7,0,1.1,0.1c0.6,0,1.1,0.1,1.7,0.1c0.1,0,0.1,0,0.2,0c0.3,0,0.6,0,0.9,0c0.6,0,1.2,0,1.8,0c0.4,0,0.8,0,1.2,0
	c0.6,0,1.1,0,1.7,0c0.1,0,0.2,0,0.3,0c0.2,0,0.5,0,0.8,0c0.6,0,1.3-0.1,1.9-0.1c0.4,0,0.8-0.1,1.2-0.1c0.6-0.1,1.2-0.1,1.8-0.2
	c0.2,0,0.4,0,0.6-0.1c0.2,0,0.3,0,0.5-0.1c1-0.1,1.9-0.2,2.9-0.3c0.2,0,0.3,0,0.5-0.1c1.1-0.2,2.2-0.3,3.2-0.6c0.1,0,0.2,0,0.3-0.1
	c0.3-0.1,0.6-0.1,0.9-0.2c0.5-0.1,1-0.2,1.5-0.3c0.4-0.1,0.8-0.2,1.2-0.2c0.5-0.1,1-0.2,1.4-0.3c0.4-0.1,0.8-0.2,1.2-0.3
	c0.5-0.2,1-0.2,1.4-0.4c0.4-0.1,0.8-0.2,1.2-0.3c0.5-0.2,1-0.3,1.4-0.4c0.2-0.1,0.4-0.2,0.6-0.2c0.2-0.1,0.3-0.1,0.4-0.2
	c0.8-0.3,1.7-0.6,2.5-0.9c0.2-0.1,0.3-0.2,0.5-0.2c1-0.4,1.9-0.8,2.9-1.2c0.2-0.1,0.5-0.2,0.7-0.3c0.7-0.3,1.4-0.6,2.2-1
	c0.2-0.2,0.6-0.2,0.8-0.4c0.9-0.5,1.8-1,2.6-1.4c0.2-0.2,0.5-0.2,0.7-0.4c0.2-0.2,0.4-0.2,0.6-0.4c0.3-0.2,0.7-0.4,1-0.6
	s0.6-0.4,0.9-0.6c0.3-0.2,0.6-0.5,1-0.7s0.6-0.4,0.9-0.6c0.3-0.2,0.6-0.5,0.9-0.7s0.6-0.5,0.8-0.6c0.3-0.2,0.6-0.5,0.8-0.7
	c0.1-0.1,0.2-0.2,0.3-0.3c0.2-0.2,0.4-0.4,0.6-0.6c0.1-0.1,0.2-0.2,0.2-0.2c0.4-0.4,0.8-0.8,1.2-1.3c0.1-0.1,0.2-0.2,0.2-0.3
	c0.3-0.4,0.6-0.7,1-1.1c0.1-0.1,0.2-0.2,0.2-0.2l0.1-0.1c0.1-0.2,0.2-0.2,0.3-0.4c0.2-0.4,0.6-0.7,0.8-1.1c0.2-0.2,0.2-0.4,0.4-0.6
	c0.2-0.3,0.4-0.7,0.6-1c0.1-0.1,0.1-0.2,0.2-0.3s0.2-0.3,0.2-0.4c0.2-0.3,0.3-0.6,0.5-0.9c0.1-0.2,0.2-0.5,0.3-0.7
	c0.2-0.3,0.2-0.6,0.4-0.9c0.1-0.2,0.1-0.2,0.2-0.4c0.1-0.1,0.1-0.2,0.1-0.3c0.1-0.2,0.2-0.6,0.2-0.8c0.1-0.2,0.2-0.5,0.2-0.8
	c0.1-0.3,0.2-0.6,0.2-0.9c0-0.2,0.1-0.3,0.1-0.5c0-0.1,0-0.2,0.1-0.3c0.1-0.3,0.1-0.6,0.2-0.9c0-0.2,0.1-0.5,0.1-0.7
	c0-0.3,0.1-0.6,0.1-0.9c0-0.2,0-0.3,0-0.5s0-0.3,0-0.5V130C446.2,130.4,446.2,130.7,446.2,131z"/>
<linearGradient id="SVGID_58_" gradientUnits="userSpaceOnUse" x1="384.0907" y1="449.5043" x2="407.8117" y2="448.9523" gradientTransform="matrix(1 0 0 -1 0 577)">
	<stop  offset="0" style="stop-color:#01FFFF"/>
	<stop  offset="0.9965" style="stop-color:#1989B2"/>
</linearGradient>
<path class="st80" d="M429.4,102.7c22.6,13.1,22.8,37.8,0.2,50.9c-22.5,13-59.1,13.1-81.7,0s-20.7-40,1.8-53
	C372.2,87.4,406.8,89.7,429.4,102.7z"/>
<linearGradient id="SVGID_59_" gradientUnits="userSpaceOnUse" x1="348.7366" y1="463.8575" x2="428.6632" y2="463.8575" gradientTransform="matrix(1 0 0 -1 0 577)">
	<stop  offset="3.474070e-03" style="stop-color:#005587"/>
	<stop  offset="1" style="stop-color:#307FAB"/>
</linearGradient>
<path class="st81" d="M416.9,96.8c15.7,9,15.8,23.7,0.2,32.7c-15.5,9-40.8,9-56.5,0c-15.7-9-15.8-23.7-0.2-32.7
	C375.9,87.7,401.2,87.7,416.9,96.8z"/>
<path class="st42" d="M406.5,110.1c9.9,5.8,10,15,0.1,20.7c-9.8,5.8-25.9,5.8-35.8,0c-9.9-5.8-10-15-0.1-20.7
	C380.6,104.5,396.6,104.5,406.5,110.1z"/>
<linearGradient id="SVGID_60_" gradientUnits="userSpaceOnUse" x1="389.6195" y1="498.902" x2="389.6195" y2="458.209" gradientTransform="matrix(1 0 0 -1 0 577)">
	<stop  offset="0" style="stop-color:#2242B8"/>
	<stop  offset="1" style="stop-color:#2242B8;stop-opacity:0"/>
</linearGradient>
<path class="st82" d="M405.7,84.3h-32.1v46.9h32.1V84.3z"/>
<linearGradient id="SVGID_61_" gradientUnits="userSpaceOnUse" x1="389.8185" y1="484.527" x2="389.8185" y2="462.682" gradientTransform="matrix(1 0 0 -1 0 577)">
	<stop  offset="0" style="stop-color:#75CEEA;stop-opacity:0"/>
	<stop  offset="0.9705" style="stop-color:#75CEEA"/>
</linearGradient>
<path class="st83" d="M389.8,113.9c9.9,0,18-4.7,18-10.5c0-5.8-8.1-10.5-18-10.5s-18,4.7-18,10.5
	C371.8,109.2,379.9,113.9,389.8,113.9z"/>
<linearGradient id="SVGID_62_" gradientUnits="userSpaceOnUse" x1="389.8185" y1="476.503" x2="389.8185" y2="449.791" gradientTransform="matrix(1 0 0 -1 0 577)">
	<stop  offset="0" style="stop-color:#75CEEA;stop-opacity:0"/>
	<stop  offset="0.9705" style="stop-color:#75CEEA"/>
</linearGradient>
<path class="st84" d="M389.8,126.7c12.2,0,22.2-5.8,22.2-12.9s-9.9-12.9-22.2-12.9c-12.2,0-22.2,5.8-22.2,12.9
	S377.6,126.7,389.8,126.7z"/>
<radialGradient id="SVGID_63_" cx="-795.3167" cy="819.9525" r="1.0005" gradientTransform="matrix(25.0996 0 0 -25.106 20351.709 20662.9336)" gradientUnits="userSpaceOnUse">
	<stop  offset="0" style="stop-color:#FFFFFF"/>
	<stop  offset="0.2044" style="stop-color:#34BDDC"/>
	<stop  offset="0.5714" style="stop-color:#126F95"/>
	<stop  offset="0.7629" style="stop-color:#024B75"/>
	<stop  offset="0.9997" style="stop-color:#3FA4B8"/>
</radialGradient>
<path class="st85" d="M389.6,100.9c8.8,0,16-7.2,16-16c0-8.8-7.2-16-16-16c-8.8,0-16,7.2-16,16C373.6,93.8,380.7,100.9,389.6,100.9z
	"/>
<path class="st86" d="M389.8,80c9.9,0,18-4.7,18-10.5c0-5.8-8.1-10.5-18-10.5s-18,4.7-18,10.5C371.8,75.3,379.9,80,389.8,80z"/>
<path class="st17" d="M411.4,34.1l-21.7,12.6l-21.9-12.6l21.8-12.6L411.4,34.1z"/>
<linearGradient id="SVGID_64_" gradientUnits="userSpaceOnUse" x1="389.6246" y1="523.9843" x2="411.4365" y2="523.9843" gradientTransform="matrix(1 0 0 -1 0 577)">
	<stop  offset="8.660240e-03" style="stop-color:#1D3A6C"/>
	<stop  offset="0.9573" style="stop-color:#2E76BB"/>
</linearGradient>
<path class="st87" d="M411.4,34.1l-0.1,25.2l-21.7,12.6l0.1-25.1L411.4,34.1z"/>
<linearGradient id="SVGID_65_" gradientUnits="userSpaceOnUse" x1="367.7435" y1="523.9843" x2="389.7055" y2="523.9843" gradientTransform="matrix(1 0 0 -1 0 577)">
	<stop  offset="8.660240e-03" style="stop-color:#1D3A6C"/>
	<stop  offset="0.9573" style="stop-color:#2E76BB"/>
</linearGradient>
<path class="st88" d="M389.7,46.8l-0.1,25.1l-21.9-12.6l0.1-25.2L389.7,46.8z"/>
<path class="st42" d="M437.8,291.2v-30.4c0,0-4.6,10-25.2,16.1v9.8L437.8,291.2L437.8,291.2z"/>
<linearGradient id="SVGID_66_" gradientUnits="userSpaceOnUse" x1="412.6415" y1="279.085" x2="437.7576" y2="279.085" gradientTransform="matrix(1 0 0 -1 0 577)">
	<stop  offset="3.474070e-03" style="stop-color:#005587"/>
	<stop  offset="1" style="stop-color:#307FAB"/>
</linearGradient>
<path class="st89" d="M412.6,286.6v22.6c0,0,16.4-3.4,25.1-17.9L412.6,286.6z"/>
<path class="st42" d="M359.2,276.9c-20.6-6.1-25.2-16.1-25.2-16.1v30.4c0,0,0,0.1,0.1,0.1l25.1-3.9V276.9z"/>
<linearGradient id="SVGID_67_" gradientUnits="userSpaceOnUse" x1="334.0706" y1="278.685" x2="359.1855" y2="278.685" gradientTransform="matrix(1 0 0 -1 0 577)">
	<stop  offset="3.474070e-03" style="stop-color:#005587"/>
	<stop  offset="1" style="stop-color:#307FAB"/>
</linearGradient>
<path class="st90" d="M334.1,291.3c8.7,14.6,25.1,18,25.1,18v-21.9L334.1,291.3z"/>
<linearGradient id="SVGID_68_" gradientUnits="userSpaceOnUse" x1="249.0895" y1="391.3572" x2="278.4745" y2="391.3572" gradientTransform="matrix(1 0 0 -1 0 577)">
	<stop  offset="8.660240e-03" style="stop-color:#1D3A6C"/>
	<stop  offset="0.9573" style="stop-color:#2E76BB"/>
</linearGradient>
<path class="st91" d="M278.5,169.3l-0.1,22.9c0,2.2-1.4,4.2-3.6,5l-22.1,7.4c-1.8,0.6-3.7-0.7-3.7-2.6l0.1-23.2
	c0-2.1,1.3-3.8,3.3-4.5l22.5-7.5C276.6,166.1,278.5,167.5,278.5,169.3z"/>
<path class="st41" d="M272.3,189c2.2-6,0.5-12.3-3.8-13.9c-4.3-1.6-9.7,2-11.9,8c-2.2,6-0.5,12.3,3.8,13.9
	C264.7,198.6,270,195,272.3,189z"/>
<path class="st40" d="M261.1,195.6l-3.8-3.6c-0.7-0.6-1.7-0.8-2.6-0.5l-22.5,7.5c-1.9,0.6-3.3,2.5-3.3,4.5l-0.1,23.2
	c0,0.8,0.3,1.4,0.8,1.9l3.8,3.6l0.1-3.3l21.1-7c2.2-0.7,3.6-2.7,3.6-5l0.1-20.5L261.1,195.6z"/>
<linearGradient id="SVGID_69_" gradientUnits="userSpaceOnUse" x1="232.5685" y1="363.0367" x2="261.9536" y2="363.0367" gradientTransform="matrix(1 0 0 -1 0 577)">
	<stop  offset="8.660240e-03" style="stop-color:#1D3A6C"/>
	<stop  offset="0.9573" style="stop-color:#2E76BB"/>
</linearGradient>
<path class="st92" d="M262,197.7l-0.1,22.9c0,2.2-1.4,4.2-3.6,5l-22.1,7.4c-1.8,0.6-3.7-0.7-3.7-2.6l0.1-23.2c0-2.1,1.3-3.8,3.3-4.5
	l22.5-7.5C260.2,194.5,262,195.7,262,197.7z"/>
<path class="st41" d="M255.7,217.3c2.2-6,0.5-12.3-3.8-13.9c-4.3-1.6-9.7,2-11.9,8c-2.2,6-0.5,12.3,3.8,13.9
	C248.1,226.9,253.5,223.3,255.7,217.3z"/>
<path class="st40" d="M148.7,251.1l-3.8-3.6c-0.7-0.6-1.7-0.8-2.6-0.5l-22.5,7.5c-1.9,0.6-3.3,2.5-3.3,4.5l-0.1,23.2
	c0,0.8,0.3,1.4,0.8,1.9l3.8,3.6l0.1-3.3l21.1-7c2.2-0.7,3.6-2.7,3.6-5l0.1-20.5L148.7,251.1z"/>
<linearGradient id="SVGID_70_" gradientUnits="userSpaceOnUse" x1="120.1586" y1="307.5137" x2="149.5435" y2="307.5137" gradientTransform="matrix(1 0 0 -1 0 577)">
	<stop  offset="8.660240e-03" style="stop-color:#1D3A6C"/>
	<stop  offset="0.9573" style="stop-color:#2E76BB"/>
</linearGradient>
<path class="st93" d="M149.5,253.2l-0.1,22.9c0,2.2-1.4,4.2-3.6,5l-22.1,7.4c-1.8,0.6-3.7-0.7-3.7-2.6l0.1-23.2
	c0-2.1,1.3-3.8,3.3-4.5l22.5-7.5C147.7,250,149.5,251.3,149.5,253.2z"/>
<path class="st41" d="M143.3,272.7c2.2-6,0.5-12.3-3.8-13.9c-4.3-1.6-9.7,2-11.9,8c-2.2,6-0.5,12.3,3.8,13.9
	C135.7,282.4,141.1,278.8,143.3,272.7z"/>
<path class="st40" d="M654.3,55.2l-3.8-3.6c-0.7-0.6-1.7-0.8-2.6-0.5l-22.5,7.5c-1.9,0.6-3.3,2.5-3.3,4.5l-0.1,23.2
	c0,0.8,0.3,1.4,0.8,1.9l3.8,3.6l0.1-3.3l21.1-7c2.2-0.7,3.6-2.7,3.6-5l0.1-20.5L654.3,55.2z"/>
<linearGradient id="SVGID_71_" gradientUnits="userSpaceOnUse" x1="625.8155" y1="503.4719" x2="655.2055" y2="503.4719" gradientTransform="matrix(1 0 0 -1 0 577)">
	<stop  offset="8.660240e-03" style="stop-color:#1D3A6C"/>
	<stop  offset="0.9573" style="stop-color:#2E76BB"/>
</linearGradient>
<path class="st94" d="M655.2,57.2l-0.1,22.9c0,2.2-1.4,4.2-3.6,5l-22.1,7.4c-1.8,0.6-3.7-0.7-3.7-2.6l0.1-23.2
	c0-2.1,1.3-3.8,3.3-4.5l22.5-7.5C653.4,54,655.2,55.4,655.2,57.2z"/>
<path class="st41" d="M648.9,76.8c2.2-6,0.5-12.3-3.8-13.9c-4.3-1.6-9.7,2-11.9,8c-2.2,6-0.5,12.3,3.8,13.9
	C641.3,86.4,646.7,82.9,648.9,76.8z"/>
<path class="st40" d="M549.4,36.5l-3.8-3.6c-0.7-0.6-1.7-0.8-2.6-0.5l-22.5,7.5c-1.9,0.6-3.3,2.5-3.3,4.5l-0.1,23.2
	c0,0.8,0.3,1.4,0.8,1.9l3.8,3.6l0.1-3.3l21.1-7c2.2-0.7,3.6-2.7,3.6-5l0.1-20.5L549.4,36.5z"/>
<linearGradient id="SVGID_72_" gradientUnits="userSpaceOnUse" x1="520.8726" y1="522.2464" x2="550.2556" y2="522.2464" gradientTransform="matrix(1 0 0 -1 0 577)">
	<stop  offset="8.660240e-03" style="stop-color:#1D3A6C"/>
	<stop  offset="0.9573" style="stop-color:#2E76BB"/>
</linearGradient>
<path class="st95" d="M550.3,38.5l-0.1,22.9c0,2.2-1.4,4.2-3.6,5l-22.1,7.4c-1.8,0.6-3.7-0.7-3.7-2.6l0.1-23.2
	c0-2.1,1.3-3.8,3.3-4.5l22.5-7.5C548.4,35.3,550.3,36.6,550.3,38.5z"/>
<path class="st41" d="M544,58c2.2-6,0.5-12.3-3.8-13.9c-4.4-1.6-9.7,2-11.9,8c-2.2,6-0.5,12.3,3.8,13.9
	C536.4,67.7,541.7,64.1,544,58z"/>
<path class="st40" d="M538.2,72.7l-3.8-3.6c-0.7-0.6-1.7-0.8-2.6-0.5l-22.5,7.5c-1.9,0.6-3.3,2.5-3.3,4.5l-0.1,23.2
	c0,0.8,0.3,1.4,0.8,1.9l3.8,3.6l0.1-3.3l21.1-7c2.2-0.7,3.6-2.7,3.6-5l0.1-20.5L538.2,72.7z"/>
<linearGradient id="SVGID_73_" gradientUnits="userSpaceOnUse" x1="509.7186" y1="486.0032" x2="539.1056" y2="486.0032" gradientTransform="matrix(1 0 0 -1 0 577)">
	<stop  offset="8.660240e-03" style="stop-color:#1D3A6C"/>
	<stop  offset="0.9573" style="stop-color:#2E76BB"/>
</linearGradient>
<path class="st96" d="M539.2,74.7l-0.1,22.9c0,2.2-1.4,4.2-3.6,5l-22.1,7.4c-1.8,0.6-3.7-0.7-3.7-2.6l0.1-23.2
	c0-2.1,1.3-3.8,3.3-4.5l22.5-7.5C537.3,71.5,539.2,72.9,539.2,74.7z"/>
<path class="st41" d="M532.8,94.3c2.2-6,0.5-12.3-3.8-13.9c-4.3-1.6-9.7,2-11.9,8c-2.2,6-0.5,12.3,3.8,13.9
	C525.2,104,530.6,100.4,532.8,94.3z"/>
<path class="st30" d="M712.6,233.2c0,0,3.4,3.7,2.2,6.8s-3.7,8.2-4.2,6.7c-0.5-1.4,1.4-7.3,1.4-8.2
	C712,237.8,712.6,233.2,712.6,233.2z"/>
<linearGradient id="SVGID_74_" gradientUnits="userSpaceOnUse" x1="658.6955" y1="377.4052" x2="688.3946" y2="377.4052" gradientTransform="matrix(1 0 0 -1 0 577)">
	<stop  offset="0" style="stop-color:#0679F6"/>
	<stop  offset="1" style="stop-color:#033367"/>
</linearGradient>
<path class="st97" d="M682.1,189.7c0,0-11.4-1.8-20.2,2c0,0-5,2.6-2.6,17.6c0,0,5.4,1.2,7.1,0c1.8-1.2,2.3-10.2,2.3-10.2
	s9,4.8,12.3,3.6c3.3-1.2,8.4-11.1,7.1-11.4C686.9,191.1,682.1,189.7,682.1,189.7z"/>
<path class="st30" d="M666.6,209.1c0,0,0.8,3.1,0,3.6s-7.3,4.6-7,3.5s1-2.2,1-2.2s-8.8,2.9-9.2,1.8c-0.4-1,7.8-6.6,7.8-6.6
	L666.6,209.1z"/>
<linearGradient id="SVGID_75_" gradientUnits="userSpaceOnUse" x1="343.8835" y1="47.906" x2="233.9025" y2="47.906" gradientTransform="matrix(1 0 0 -1 0 577)">
	<stop  offset="8.660240e-03" style="stop-color:#1D3A6C"/>
	<stop  offset="0.9573" style="stop-color:#2E76BB"/>
</linearGradient>
<path class="st98" d="M233.9,503.1l0.1,25.7c28.1,16.3,66.9,26.4,109.9,26.4l-0.1-25.7C300.8,529.5,262,519.4,233.9,503.1z"/>
<path class="st17" d="M233.9,503.1c28.1,16.3,66.9,26.4,109.9,26.4l0.2-29.6c-28.9,0-55-6.8-73.8-17.8L233.9,503.1z"/>
<linearGradient id="SVGID_76_" gradientUnits="userSpaceOnUse" x1="343.7946" y1="49.5065" x2="344.0336" y2="49.5065" gradientTransform="matrix(1 0 0 -1 0 577)">
	<stop  offset="3.474070e-03" style="stop-color:#005587"/>
	<stop  offset="1" style="stop-color:#307FAB"/>
</linearGradient>
<path class="st99" d="M343.8,529.5l0.1,25.7l0.2-29.6l-0.1-25.7L343.8,529.5z"/>
<path class="st42" d="M478.5,162.5c0,1.5-1,3.8-2.4,5.2l-27.8,27.8V195c0-1.5,1-3.8,2.4-5.2l27.8-27.8V162.5z"/>
<linearGradient id="SVGID_77_" gradientUnits="userSpaceOnUse" x1="448.3365" y1="397.5646" x2="486.3296" y2="397.5646" gradientTransform="matrix(1 0 0 -1 0 577)">
	<stop  offset="8.660240e-03" style="stop-color:#1D3A6C"/>
	<stop  offset="0.9573" style="stop-color:#2E76BB"/>
</linearGradient>
<path class="st100" d="M486.3,163.8c0,0.2,0,0.3,0,0.4c-0.1,0.8-0.4,1.8-0.9,2.7c-0.1,0.2-0.2,0.3-0.3,0.5c-0.1,0.2-0.2,0.2-0.2,0.4
	c-0.2,0.2-0.3,0.4-0.5,0.6c-0.2,0.2-0.3,0.4-0.5,0.6l-33.1,33.1c-0.1,0.1-0.2,0.2-0.2,0.2c-0.1,0.1-0.2,0.1-0.2,0.2
	c0,0-0.1,0-0.1,0.1c-0.1,0-0.1,0.1-0.2,0.1c0,0-0.1,0-0.1,0.1c-0.1,0-0.1,0.1-0.2,0.1c0,0-0.1,0-0.1,0.1c-0.1,0-0.1,0-0.2,0.1h-0.1
	h-0.1h-0.1h-0.1h-0.1h-0.1c-0.4-0.1-0.7-0.5-0.7-1.3v-3.2v-3l27.8-27.8c1.4-1.4,2.4-3.7,2.4-5.2v-0.5l5.4-5.4
	c0.5-0.5,0.9-0.7,1.3-0.9c0.7-0.2,1.2,0.2,1.2,1.2v6.1L486.3,163.8z"/>
<linearGradient id="SVGID_78_" gradientUnits="userSpaceOnUse" x1="626.538" y1="200.8499" x2="586.028" y2="243.3239" gradientTransform="matrix(1 0 0 -1 0 577)">
	<stop  offset="0.1905" style="stop-color:#84B9D5;stop-opacity:0"/>
	<stop  offset="0.4748" style="stop-color:#5AA6C7;stop-opacity:0.3512"/>
	<stop  offset="0.8247" style="stop-color:#2B91B8;stop-opacity:0.7834"/>
	<stop  offset="1" style="stop-color:#1989B2"/>
</linearGradient>
<path class="st101" d="M619.8,349l-0.1,28.2L595,363.3v-28.6L619.8,349z"/>
<linearGradient id="SVGID_79_" gradientUnits="userSpaceOnUse" x1="639.1133" y1="208.513" x2="526.2744" y2="233.736" gradientTransform="matrix(1 0 0 -1 0 577)">
	<stop  offset="0.1905" style="stop-color:#84B9D5;stop-opacity:0"/>
	<stop  offset="0.4748" style="stop-color:#5AA6C7;stop-opacity:0.3512"/>
	<stop  offset="0.8247" style="stop-color:#2B91B8;stop-opacity:0.7834"/>
	<stop  offset="1" style="stop-color:#1989B2"/>
</linearGradient>
<path class="st102" d="M595,334.6v28.6l-24.6,13.8l0.1-28.2L595,334.6z"/>
<radialGradient id="SVGID_80_" cx="-793.6458" cy="818.9161" r="1.0003" gradientTransform="matrix(22.3854 0 0 -22.3911 18361.1211 18692.8125)" gradientUnits="userSpaceOnUse">
	<stop  offset="0" style="stop-color:#FFFFFF"/>
	<stop  offset="0.2106" style="stop-color:#E30E75"/>
	<stop  offset="0.5537" style="stop-color:#A11254"/>
	<stop  offset="0.764" style="stop-color:#7D1442"/>
	<stop  offset="0.9997" style="stop-color:#3FA4B8"/>
</radialGradient>
<path class="st103" d="M595,377.6c7.9,0,14.3-6.4,14.3-14.3S602.9,349,595,349c-7.9,0-14.3,6.4-14.3,14.3S587.1,377.6,595,377.6z"/>
<linearGradient id="SVGID_81_" gradientUnits="userSpaceOnUse" x1="637.9926" y1="240.902" x2="564.9625" y2="219.034" gradientTransform="matrix(1 0 0 -1 0 577)">
	<stop  offset="0.1905" style="stop-color:#84B9D5;stop-opacity:0"/>
	<stop  offset="0.4748" style="stop-color:#5AA6C7;stop-opacity:0.3512"/>
	<stop  offset="0.8247" style="stop-color:#2B91B8;stop-opacity:0.7834"/>
	<stop  offset="1" style="stop-color:#1989B2"/>
</linearGradient>
<path class="st104" d="M595,334.6l24.7,14.3L595,363.3L570.4,349L595,334.6z"/>
<linearGradient id="SVGID_82_" gradientUnits="userSpaceOnUse" x1="642.6497" y1="184.7186" x2="576.3196" y2="226.2616" gradientTransform="matrix(1 0 0 -1 0 577)">
	<stop  offset="0.1905" style="stop-color:#84B9D5;stop-opacity:0"/>
	<stop  offset="0.4748" style="stop-color:#5AA6C7;stop-opacity:0.3512"/>
	<stop  offset="0.8247" style="stop-color:#2B91B8;stop-opacity:0.7834"/>
	<stop  offset="1" style="stop-color:#1989B2"/>
</linearGradient>
<path class="st105" d="M619.8,349l-0.1,28.2L595,391.4v-28.2L619.8,349z"/>
<path class="st8" d="M631.1,308.1c0,0-1.6,17.3-2.8,19c-1.1,1.8-7.5,12.6-7.5,12.6s-2.4-0.6-2.8,1.5c-0.4,2-0.8,3-0.8,3l1-0.6
	c0,0-1.6,5.7-0.8,5.8c0.7,0,2.6-1.1,3.8-3c1.2-1.8,1.8-5,1.8-5s9.8-13.1,10.8-16.1c1-3,3-12.8,3.2-13.9
	C637.7,307.4,632.6,302.4,631.1,308.1z"/>
<linearGradient id="SVGID_83_" gradientUnits="userSpaceOnUse" x1="563.4785" y1="231.1775" x2="601.2185" y2="183.2625" gradientTransform="matrix(1 0 0 -1 0 577)">
	<stop  offset="0.1905" style="stop-color:#84B9D5;stop-opacity:0"/>
	<stop  offset="0.4748" style="stop-color:#5AA6C7;stop-opacity:0.3512"/>
	<stop  offset="0.8247" style="stop-color:#2B91B8;stop-opacity:0.7834"/>
	<stop  offset="1" style="stop-color:#1989B2"/>
</linearGradient>
<path class="st106" d="M595,363.3v28.2l-24.7-14.3l0.1-28.2L595,363.3z"/>
<linearGradient id="SVGID_84_" gradientUnits="userSpaceOnUse" x1="425.528" y1="314.0139" x2="292.9" y2="249.5659" gradientTransform="matrix(1 0 0 -1 0 577)">
	<stop  offset="0" style="stop-color:#43B5CB;stop-opacity:0"/>
	<stop  offset="0.5258" style="stop-color:#41B4CD;stop-opacity:0.528"/>
	<stop  offset="0.7151" style="stop-color:#3AB1D3;stop-opacity:0.7181"/>
	<stop  offset="0.8501" style="stop-color:#2FABDE;stop-opacity:0.8537"/>
	<stop  offset="0.9586" style="stop-color:#1EA4ED;stop-opacity:0.9626"/>
	<stop  offset="0.9958" style="stop-color:#16A0F4"/>
</linearGradient>
<path class="st107" d="M298.6,314.9l62.1-38.7v32.4L298.5,343L298.6,314.9z"/>
<linearGradient id="SVGID_85_" gradientUnits="userSpaceOnUse" x1="415.7114" y1="334.2147" x2="283.0834" y2="269.7667" gradientTransform="matrix(1 0 0 -1 0 577)">
	<stop  offset="0" style="stop-color:#43B5CB;stop-opacity:0"/>
	<stop  offset="0.5258" style="stop-color:#41B4CD;stop-opacity:0.528"/>
	<stop  offset="0.7151" style="stop-color:#3AB1D3;stop-opacity:0.7181"/>
	<stop  offset="0.8501" style="stop-color:#2FABDE;stop-opacity:0.8537"/>
	<stop  offset="0.9586" style="stop-color:#1EA4ED;stop-opacity:0.9626"/>
	<stop  offset="0.9958" style="stop-color:#16A0F4"/>
</linearGradient>
<path class="st108" d="M273.9,300.6l65.3-35.8c0,0,11.7,9.1,21.5,11.4l-62.1,38.7L273.9,300.6z"/>
<linearGradient id="SVGID_86_" gradientUnits="userSpaceOnUse" x1="306.467" y1="235.6647" x2="265.9501" y2="278.1387" gradientTransform="matrix(1 0 0 -1 0 577)">
	<stop  offset="0.1905" style="stop-color:#84B9D5;stop-opacity:0"/>
	<stop  offset="0.4748" style="stop-color:#5AA6C7;stop-opacity:0.3512"/>
	<stop  offset="0.8247" style="stop-color:#2B91B8;stop-opacity:0.7834"/>
	<stop  offset="1" style="stop-color:#1989B2"/>
</linearGradient>
<path class="st109" d="M299.7,314.2l-0.1,28.2L275,328.5v-28.6L299.7,314.2z"/>
<linearGradient id="SVGID_87_" gradientUnits="userSpaceOnUse" x1="319.0514" y1="243.3151" x2="206.2104" y2="268.5391" gradientTransform="matrix(1 0 0 -1 0 577)">
	<stop  offset="0.1905" style="stop-color:#84B9D5;stop-opacity:0"/>
	<stop  offset="0.4748" style="stop-color:#5AA6C7;stop-opacity:0.3512"/>
	<stop  offset="0.8247" style="stop-color:#2B91B8;stop-opacity:0.7834"/>
	<stop  offset="1" style="stop-color:#1989B2"/>
</linearGradient>
<path class="st110" d="M275,299.8v28.6l-24.7,13.8l0.1-28.2L275,299.8z"/>
<radialGradient id="SVGID_88_" cx="-793.6445" cy="818.9161" r="0.9987" gradientTransform="matrix(22.3854 0 0 -22.3911 18041.0645 18657.9824)" gradientUnits="userSpaceOnUse">
	<stop  offset="0" style="stop-color:#FFFFFF"/>
	<stop  offset="0.2106" style="stop-color:#E30E75"/>
	<stop  offset="0.5537" style="stop-color:#A11254"/>
	<stop  offset="0.764" style="stop-color:#7D1442"/>
	<stop  offset="0.9997" style="stop-color:#3FA4B8"/>
</radialGradient>
<path class="st111" d="M275,342.8c7.9,0,14.3-6.4,14.3-14.3c0-7.9-6.4-14.3-14.3-14.3c-7.9,0-14.3,6.4-14.3,14.3
	C260.7,336.4,267.1,342.8,275,342.8z"/>
<linearGradient id="SVGID_89_" gradientUnits="userSpaceOnUse" x1="317.946" y1="275.6982" x2="244.916" y2="253.8292" gradientTransform="matrix(1 0 0 -1 0 577)">
	<stop  offset="0.1905" style="stop-color:#84B9D5;stop-opacity:0"/>
	<stop  offset="0.4748" style="stop-color:#5AA6C7;stop-opacity:0.3512"/>
	<stop  offset="0.8247" style="stop-color:#2B91B8;stop-opacity:0.7834"/>
	<stop  offset="1" style="stop-color:#1989B2"/>
</linearGradient>
<path class="st112" d="M275,299.8l24.7,14.3L275,328.5l-24.6-14.3L275,299.8z"/>
<linearGradient id="SVGID_90_" gradientUnits="userSpaceOnUse" x1="322.5845" y1="219.5452" x2="256.2615" y2="261.0881" gradientTransform="matrix(1 0 0 -1 0 577)">
	<stop  offset="0.1905" style="stop-color:#84B9D5;stop-opacity:0"/>
	<stop  offset="0.4748" style="stop-color:#5AA6C7;stop-opacity:0.3512"/>
	<stop  offset="0.8247" style="stop-color:#2B91B8;stop-opacity:0.7834"/>
	<stop  offset="1" style="stop-color:#1989B2"/>
</linearGradient>
<path class="st113" d="M299.7,314.2l-0.1,28.2L275,356.6v-28.2L299.7,314.2z"/>
<linearGradient id="SVGID_91_" gradientUnits="userSpaceOnUse" x1="243.4288" y1="266.015" x2="281.1688" y2="218.099" gradientTransform="matrix(1 0 0 -1 0 577)">
	<stop  offset="0.1905" style="stop-color:#84B9D5;stop-opacity:0"/>
	<stop  offset="0.4748" style="stop-color:#5AA6C7;stop-opacity:0.3512"/>
	<stop  offset="0.8247" style="stop-color:#2B91B8;stop-opacity:0.7834"/>
	<stop  offset="1" style="stop-color:#1989B2"/>
</linearGradient>
<path class="st114" d="M275,328.5v28.2l-24.7-14.3l0.1-28.2L275,328.5z"/>
<linearGradient id="SVGID_92_" gradientUnits="userSpaceOnUse" x1="443.3987" y1="279.9344" x2="576.0277" y2="215.4854" gradientTransform="matrix(1 0 0 -1 0 577)">
	<stop  offset="0" style="stop-color:#43B5CB;stop-opacity:0"/>
	<stop  offset="0.5258" style="stop-color:#41B4CD;stop-opacity:0.528"/>
	<stop  offset="0.7151" style="stop-color:#3AB1D3;stop-opacity:0.7181"/>
	<stop  offset="0.8501" style="stop-color:#2FABDE;stop-opacity:0.8537"/>
	<stop  offset="0.9586" style="stop-color:#1EA4ED;stop-opacity:0.9626"/>
	<stop  offset="0.9958" style="stop-color:#16A0F4"/>
</linearGradient>
<path class="st115" d="M570.3,349l-62.1-38.7v32.4l62.2,34.5L570.3,349z"/>
<linearGradient id="SVGID_93_" gradientUnits="userSpaceOnUse" x1="453.2218" y1="300.1508" x2="585.8498" y2="235.7028" gradientTransform="matrix(1 0 0 -1 0 577)">
	<stop  offset="0" style="stop-color:#43B5CB;stop-opacity:0"/>
	<stop  offset="0.5258" style="stop-color:#41B4CD;stop-opacity:0.528"/>
	<stop  offset="0.7151" style="stop-color:#3AB1D3;stop-opacity:0.7181"/>
	<stop  offset="0.8501" style="stop-color:#2FABDE;stop-opacity:0.8537"/>
	<stop  offset="0.9586" style="stop-color:#1EA4ED;stop-opacity:0.9626"/>
	<stop  offset="0.9958" style="stop-color:#16A0F4"/>
</linearGradient>
<path class="st116" d="M595,334.6l-65.3-35.8c0,0-11.7,9.1-21.5,11.4l62.2,38.7L595,334.6z"/>
<path class="st31" d="M144.6,361.6c0,0-2.2,0.2-4.2-2.6c-2-2.9-8.6-6.2-11.4,1.4c-2.9,7.5-0.9,10.6-3.4,12.2c-2.5,1.5-9.1,5-6,8.6
	c3.1,3.6,6.4,1.8,5.6,7.4c-0.7,5.7,6,6.3,8.1,2.5c2.1-3.8,3.3-6,6.3-8.2c3-2.2,3.7-6.2,3.7-6.2L144.6,361.6z"/>
<linearGradient id="SVGID_94_" gradientUnits="userSpaceOnUse" x1="145.4276" y1="193.3606" x2="168.1995" y2="193.3606" gradientTransform="matrix(1 0 0 -1 0 577)">
	<stop  offset="0" style="stop-color:#0679F6"/>
	<stop  offset="0.5869" style="stop-color:#19BDF8"/>
</linearGradient>
<path class="st117" d="M147,382.8c0.2,0.2,8.3,6.5,11,5.4c2.6-1,7.7-14.3,7.7-14.3s1.3-0.2,2.5,1c0,0-3,15.3-7.1,17.8
	c-4.2,2.5-15.7-2.2-15.7-2.2L147,382.8z"/>
<linearGradient id="SVGID_95_" gradientUnits="userSpaceOnUse" x1="132.554" y1="180.4943" x2="150.7941" y2="180.4943" gradientTransform="matrix(1 0 0 -1 0 577)">
	<stop  offset="0" style="stop-color:#0679F6"/>
	<stop  offset="0.5869" style="stop-color:#19BDF8"/>
</linearGradient>
<path class="st118" d="M132.6,410.6c-0.2-2.5,3.2-7.7,3-10.6c-0.2-6.6-1.2-11.4-1.2-11.4c-1.1-5.5,0.6-7.8,7.4-8.2
	c1.8,0,6.1,1.8,6.9,4.7c0.8,2.9,3.4,3.8,1.6,7.9c-1.9,4.6-3.3,5.1-0.8,17.8C149.4,410.8,141.7,415,132.6,410.6z"/>
<path class="st119" d="M144.1,386.3c-1.7,0-4.4-1.8-4.4-3.5l-0.9-9.8c0-1.7,1-3,2.7-3c1.7,0,1.5,1.4,1.5,3.1l2.1,10.1
	C145.5,384.9,145.8,386.3,144.1,386.3z"/>
<path class="st120" d="M149,367.8c0,4.8,0,11.6-4.2,11.6s-9.3-6.8-9.3-11.6c0-4.8,2.6-7.2,6.7-7.2C146.4,360.6,149,363,149,367.8z"
	/>
<path class="st120" d="M137.9,370.3c0,1.6-0.3,2.6-1.5,2.6c-1.1,0-2.1-1-2.1-2.6c0-1.6,0.9-2.4,2.1-2.4
	C137.5,367.8,137.9,368.7,137.9,370.3z"/>
<path class="st31" d="M136.4,367.8c0,0,0.8,4.3,1.4,3c0.6-1.4-0.3-4.6,0.5-3.9c0.7,0.6,2.6,2.1,6.3-2.2c0,0,2.5,4.2,4.4,4.6
	c0,0,1.9-3.8,1-5.8c-0.9-2.1-6-8.3-14.7-1.8c-8.7,6.4-0.6,7.3-0.6,7.3S136.2,367.2,136.4,367.8z"/>
<linearGradient id="SVGID_96_" gradientUnits="userSpaceOnUse" x1="133.9369" y1="187.3593" x2="173.9484" y2="187.3593" gradientTransform="matrix(1 0 0 -1 0 577)">
	<stop  offset="0" style="stop-color:#0679F6"/>
	<stop  offset="0.5869" style="stop-color:#19BDF8"/>
</linearGradient>
<path class="st121" d="M136.2,383.7c0,0,14.4,9.2,21.3,7.1c6.9-2.1,14.4-7.4,14.6-7.1c0.2,0.3,2.2,1,1.8,2.7s-12.7,9.7-18.2,9.6
	c-5.4-0.1-20.1-5.4-20.1-5.4s-2.2-1.8-1.5-5.1C134.8,382,136.2,383.7,136.2,383.7z"/>
<linearGradient id="SVGID_97_" gradientUnits="userSpaceOnUse" x1="194.4178" y1="140.4166" x2="195.0308" y2="137.9346" gradientTransform="matrix(1 0 0 -1 0 577)">
	<stop  offset="0" style="stop-color:#0679F6"/>
	<stop  offset="0.5869" style="stop-color:#19BDF8"/>
</linearGradient>
<path class="st122" d="M186.2,440.4c0,0,2,1.9,3.3,2.3c1.4,0.5,14.8-0.6,15.1-2.3c0.3-1.8-15.8-2.8-15.8-2.8L186.2,440.4z"/>
<linearGradient id="SVGID_98_" gradientUnits="userSpaceOnUse" x1="137.3175" y1="128.6144" x2="138.7935" y2="122.6444" gradientTransform="matrix(1 0 0 -1 0 577)">
	<stop  offset="0" style="stop-color:#0679F6"/>
	<stop  offset="0.5869" style="stop-color:#19BDF8"/>
</linearGradient>
<path class="st123" d="M139.1,447c0,0-2.6,0.8-3,1.9c-0.5,1.1-0.5,17.3,2.6,15.8c2-1,2.8-14.6,2.9-15.3
	C141.8,448.7,139.1,447,139.1,447z"/>
<linearGradient id="SVGID_99_" gradientUnits="userSpaceOnUse" x1="161.2533" y1="167.2348" x2="164.5103" y2="154.0628" gradientTransform="matrix(1 0 0 -1 0 577)">
	<stop  offset="0" style="stop-color:#0679F6"/>
	<stop  offset="1" style="stop-color:#033367"/>
</linearGradient>
<path class="st124" d="M149.4,410.8c0,0,17.5,8.6,19.8,11.4c2.2,2.8,19.7,15.4,19.7,15.4s-1.8,3-2.6,2.8
	c-0.8-0.2-17.7-11.4-19.4-12.5c-1.7-1-16-5.8-16-5.8s-9-6.3-8.7-6.5C142.4,415.5,149.4,410.8,149.4,410.8z"/>
<linearGradient id="SVGID_100_" gradientUnits="userSpaceOnUse" x1="147.42" y1="160.911" x2="151.121" y2="137.083" gradientTransform="matrix(1 0 0 -1 0 577)">
	<stop  offset="0" style="stop-color:#0679F6"/>
	<stop  offset="1" style="stop-color:#033367"/>
</linearGradient>
<path class="st125" d="M132.6,410.6c0,0-1.5,9.4,6.2,12.6c7.8,3.2,15.6,6.2,15.9,6.6c0.3,0.5-15.7,16.9-15.5,17.3
	c0.2,0.4,1.7,2.4,3.2,2.5c1.5,0.1,22.2-19,21.5-21.4c-0.7-2.4-17-12.7-17.8-13.1c-0.7-0.4,3.3-4.2,3.3-4.2L132.6,410.6z"/>
<path class="st120" d="M172.1,383.7c0,0-1.4-6-0.6-6s1,0.6,1,0.6s-0.3-6.8,0.9-5.9c1.2,0.9,5.4,9.2,3.2,11.4
	c-2.2,2.2-2.6,2.6-2.6,2.6L172.1,383.7z"/>
<path class="st120" d="M165.7,374c0,0,0.1-1.6-0.2-3.4c-0.3-1.7,0-11.8,1.4-7.4c1.4,4.4,1.4,4.4,1.4,4.4s1-1.6,1.3-1s1.4,4.6,0.4,6
	c-1.1,1.4-1.7,2.5-1.7,2.5L165.7,374z"/>
<path class="st3" d="M139.4,59.4c1.4,0,2.6-1.1,2.6-2.6c0-1.4-1.1-2.6-2.6-2.6c-1.4,0-2.6,1.1-2.6,2.6
	C136.9,58.3,138,59.4,139.4,59.4z"/>
<linearGradient id="SVGID_101_" gradientUnits="userSpaceOnUse" x1="172.3219" y1="521.0142" x2="197.1412" y2="496.4596" gradientTransform="matrix(1 0 0 -1 0 577)">
	<stop  offset="0" style="stop-color:#0679F6"/>
	<stop  offset="0.5869" style="stop-color:#19BDF8"/>
</linearGradient>
<path class="st126" d="M174,54.3c0,0,7.8,8.1,11.7,10.7c3.9,2.6,14.6,12.3,14.6,12.3l-2.2,2.2c-1,0.4-15.1-10.2-16.2-11.2
	c-1.1-1-9.7-5.9-10.1-6.6C171.4,61,174,54.3,174,54.3z"/>
<linearGradient id="SVGID_102_" gradientUnits="userSpaceOnUse" x1="157.4173" y1="430.4394" x2="149.2153" y2="439.7134" gradientTransform="matrix(1 0 0 -1 0 577)">
	<stop  offset="0" style="stop-color:#0679F6"/>
	<stop  offset="0.5869" style="stop-color:#19BDF8"/>
</linearGradient>
<path class="st127" d="M156.2,136.1c0,0-0.6,14.2-3.3,14c-2.6-0.2-2.7-10.8-1.9-12.9c0.8-2.1,1.4-3.1,1.7-3
	C153.1,134.4,156.2,136.1,156.2,136.1z"/>
<linearGradient id="SVGID_103_" gradientUnits="userSpaceOnUse" x1="113.0717" y1="474.8284" x2="109.7136" y2="478.6244" gradientTransform="matrix(1 0 0 -1 0 577)">
	<stop  offset="0" style="stop-color:#0679F6"/>
	<stop  offset="0.5869" style="stop-color:#19BDF8"/>
</linearGradient>
<path class="st128" d="M116.7,98.9c-0.2,0-1.8,0.9-3.8,2.6c-2.1,1.7-6.3,4.7-7.5,3.4c-1.2-1.3,7.6-10.3,9.2-10.1
	c1.6,0.3,3.1,1.2,3.1,1.2L116.7,98.9z"/>
<linearGradient id="SVGID_104_" gradientUnits="userSpaceOnUse" x1="171.7948" y1="453.7009" x2="133.205" y2="497.3306" gradientTransform="matrix(1 0 0 -1 0 577)">
	<stop  offset="0" style="stop-color:#0679F6"/>
	<stop  offset="1" style="stop-color:#033367"/>
</linearGradient>
<path class="st129" d="M169.5,82.5c0,0-2.6,22.7-3.8,27.2c-1.3,4.5-8.9,27.2-9,27c-0.2-0.2-3.5-0.1-4.4-1.8
	c-0.9-1.7,6.8-24.9,6.9-28.2c0.1-3.4-0.1-18.8-0.1-18.8s-17.7,6.2-19.7,6c-2-0.2-21.2,4.3-22.1,4.9s-2.8-1.7-2.6-2.6
	c0.2-1,19.8-9.4,21.2-9.1s19.8-9.6,19.8-9.6S168.6,80.7,169.5,82.5z"/>
<linearGradient id="SVGID_105_" gradientUnits="userSpaceOnUse" x1="175.3296" y1="500.3081" x2="154.8517" y2="521.178" gradientTransform="matrix(1 0 0 -1 0 577)">
	<stop  offset="0" style="stop-color:#0679F6"/>
	<stop  offset="0.5869" style="stop-color:#19BDF8"/>
</linearGradient>
<path class="st130" d="M172.8,53.4c0.2,0.1,5.6,3.7,5.3,7.8c-0.4,4.1-7.6,13.9-8.2,17.2c-0.6,3.4-0.2,4.1-0.4,4.1s-4.5,0.9-9-1.2
	c-4.5-2.2-5.1-4-5.1-4s2.5-4.1,2.7-7.5c0.3-3.4,2-12.6,3.7-14.8C163.4,52.8,169,51.7,172.8,53.4z"/>
<path class="st30" d="M172.2,59c-1.8,0-4.6-1.9-4.6-3.7l-1-10c0-1.8,1-3.1,2.8-3.1c1.8,0,1.6,1.5,1.6,3.3l2.2,10.4
	C173.8,57.5,174,59,172.2,59z"/>
<path class="st131" d="M178.6,39.7c1,4.9,2.4,11.8-1.8,12.6c-4.2,0.9-10.7-5-11.8-9.8c-1-4.9,1.1-7.8,5.3-8.6
	C174.4,32.9,177.6,34.8,178.6,39.7z"/>
<path class="st131" d="M167.5,45.3c0.6,1.5,0.7,2.6-0.3,3c-1,0.5-2.3-0.1-3-1.6c-0.6-1.5-0.2-2.6,1-3.1
	C166.2,43.2,166.9,43.9,167.5,45.3z"/>
<path class="st31" d="M166,43.6c0,0,1.4,3.7,1.6,3c0.2-0.7-1.2-2-0.8-4.3c0.5-2.3,2.4-4.4,2.4-4.4s9,4.9,9.7-0.6
	c0.7-5.4-1.3-8.2-2.3-6.4c-1,1.8,0.5,0.7-5.2,1.4c-5.7,0.7-9.9,3.4-6.9,11.9C164.4,44.1,165.2,43.5,166,43.6z"/>
<path class="st131" d="M186.1,90.1c0,0,0.5,1,1.6,1.4c1.1,0.3,12.9-5.2,8-5c-4.9,0.2-6.3,1.4-7.3,1c-1-0.3-1.8,0.1-1.8,0.1l-2.6,1.1
	L186.1,90.1z"/>
<linearGradient id="SVGID_106_" gradientUnits="userSpaceOnUse" x1="191.287" y1="486.2997" x2="162.3285" y2="516.3083" gradientTransform="matrix(1 0 0 -1 0 577)">
	<stop  offset="0" style="stop-color:#0679F6"/>
	<stop  offset="0.5869" style="stop-color:#19BDF8"/>
</linearGradient>
<path class="st132" d="M166.9,54.1c0,0,2.3,19.4,6.1,21.2c3.7,1.8,14.5,12.2,14.5,12.2s-0.2,1.7-1.3,2.5
	c-1.1,0.8-16.9-10.7-18.3-12.2c-1.4-1.5-7.7-19.6-7-20.6C161.3,56.2,164.2,51.9,166.9,54.1z"/>
<path class="st131" d="M200.4,77.3c0,0-1-2.7,0.6-3.6c1.7-0.9,6.9-1.1,5.8,0c-1,1.1-4.1,1.8-4.2,2.2c-0.2,0.5,2.2,1.2,0.9,1.4
	C202.2,77.5,200.4,77.3,200.4,77.3z"/>
<path class="st131" d="M200.5,74.1c0,0-2.2,3.8-1.7,4.8l1.5-1.5L200.5,74.1z"/>
</svg>
